<svg width="1440" height="791" viewBox="0 0 1440 791" fill="none" xmlns="http://www.w3.org/2000/svg">
<rect width="1440" height="791" fill="#D5D5F1"/>
<rect x="214" y="176" width="1011" height="362" fill="white"/>
<rect x="264.5" y="226.5" width="998" height="349" stroke="white" stroke-width="13"/>
<path d="M668.34 296.54C668.34 297.66 668.07 298.71 667.53 299.69C667.01 300.67 666.18 301.46 665.04 302.06C663.92 302.66 662.5 302.96 660.78 302.96H657.27V311H653.07V290.06H660.78C662.4 290.06 663.78 290.34 664.92 290.9C666.06 291.46 666.91 292.23 667.47 293.21C668.05 294.19 668.34 295.3 668.34 296.54ZM660.6 299.57C661.76 299.57 662.62 299.31 663.18 298.79C663.74 298.25 664.02 297.5 664.02 296.54C664.02 294.5 662.88 293.48 660.6 293.48H657.27V299.57H660.6ZM678.582 311.27C677.222 311.27 676.002 311.03 674.922 310.55C673.842 310.05 672.982 309.38 672.342 308.54C671.722 307.7 671.382 306.77 671.322 305.75H675.552C675.632 306.39 675.942 306.92 676.482 307.34C677.042 307.76 677.732 307.97 678.552 307.97C679.352 307.97 679.972 307.81 680.412 307.49C680.872 307.17 681.102 306.76 681.102 306.26C681.102 305.72 680.822 305.32 680.262 305.06C679.722 304.78 678.852 304.48 677.652 304.16C676.412 303.86 675.392 303.55 674.592 303.23C673.812 302.91 673.132 302.42 672.552 301.76C671.992 301.1 671.712 300.21 671.712 299.09C671.712 298.17 671.972 297.33 672.492 296.57C673.032 295.81 673.792 295.21 674.772 294.77C675.772 294.33 676.942 294.11 678.282 294.11C680.262 294.11 681.842 294.61 683.022 295.61C684.202 296.59 684.852 297.92 684.972 299.6H680.952C680.892 298.94 680.612 298.42 680.112 298.04C679.632 297.64 678.982 297.44 678.162 297.44C677.402 297.44 676.812 297.58 676.392 297.86C675.992 298.14 675.792 298.53 675.792 299.03C675.792 299.59 676.072 300.02 676.632 300.32C677.192 300.6 678.062 300.89 679.242 301.19C680.442 301.49 681.432 301.8 682.212 302.12C682.992 302.44 683.662 302.94 684.222 303.62C684.802 304.28 685.102 305.16 685.122 306.26C685.122 307.22 684.852 308.08 684.312 308.84C683.792 309.6 683.032 310.2 682.032 310.64C681.052 311.06 679.902 311.27 678.582 311.27ZM705.37 294.38L695.08 318.86H690.61L694.21 310.58L687.55 294.38H692.26L696.55 305.99L700.9 294.38H705.37ZM707.454 302.69C707.454 300.97 707.804 299.47 708.504 298.19C709.204 296.89 710.174 295.89 711.414 295.19C712.654 294.47 714.074 294.11 715.674 294.11C717.734 294.11 719.434 294.63 720.774 295.67C722.134 296.69 723.044 298.13 723.504 299.99H718.974C718.734 299.27 718.324 298.71 717.744 298.31C717.184 297.89 716.484 297.68 715.644 297.68C714.444 297.68 713.494 298.12 712.794 299C712.094 299.86 711.744 301.09 711.744 302.69C711.744 304.27 712.094 305.5 712.794 306.38C713.494 307.24 714.444 307.67 715.644 307.67C717.344 307.67 718.454 306.91 718.974 305.39H723.504C723.044 307.19 722.134 308.62 720.774 309.68C719.414 310.74 717.714 311.27 715.674 311.27C714.074 311.27 712.654 310.92 711.414 310.22C710.174 309.5 709.204 308.5 708.504 307.22C707.804 305.92 707.454 304.41 707.454 302.69ZM736.841 294.14C738.101 294.14 739.221 294.42 740.201 294.98C741.181 295.52 741.941 296.33 742.481 297.41C743.041 298.47 743.321 299.75 743.321 301.25V311H739.121V301.82C739.121 300.5 738.791 299.49 738.131 298.79C737.471 298.07 736.571 297.71 735.431 297.71C734.271 297.71 733.351 298.07 732.671 298.79C732.011 299.49 731.681 300.5 731.681 301.82V311H727.481V288.8H731.681V296.45C732.221 295.73 732.941 295.17 733.841 294.77C734.741 294.35 735.741 294.14 736.841 294.14ZM761.055 307.01H752.715L751.335 311H746.925L754.455 290.03H759.345L766.875 311H762.435L761.055 307.01ZM759.915 303.65L756.885 294.89L753.855 303.65H759.915ZM775.479 297.83V305.87C775.479 306.43 775.609 306.84 775.869 307.1C776.149 307.34 776.609 307.46 777.249 307.46H779.199V311H776.559C773.019 311 771.249 309.28 771.249 305.84V297.83H769.269V294.38H771.249V290.27H775.479V294.38H779.199V297.83H775.479Z" fill="black"/>
<path d="M302.142 380.016H294.51L293.046 384H291.27L297.39 367.44H299.286L305.382 384H303.606L302.142 380.016ZM301.638 378.624L298.326 369.552L295.014 378.624H301.638ZM332.497 367.44V384H330.817V370.776L324.913 384H323.689L317.785 370.824V384H316.105V367.44H317.881L324.289 381.792L330.697 367.44H332.497ZM336.26 377.424C336.26 376.08 336.524 374.904 337.052 373.896C337.596 372.872 338.34 372.088 339.284 371.544C340.244 370.984 341.324 370.704 342.524 370.704C343.772 370.704 344.844 370.992 345.74 371.568C346.652 372.144 347.308 372.88 347.708 373.776V370.896H349.388V384H347.708V381.096C347.292 381.992 346.628 382.736 345.716 383.328C344.82 383.904 343.748 384.192 342.5 384.192C341.316 384.192 340.244 383.912 339.284 383.352C338.34 382.792 337.596 382 337.052 380.976C336.524 379.952 336.26 378.768 336.26 377.424ZM347.708 377.448C347.708 376.392 347.492 375.464 347.06 374.664C346.628 373.864 346.036 373.248 345.284 372.816C344.548 372.384 343.732 372.168 342.836 372.168C341.908 372.168 341.076 372.376 340.34 372.792C339.604 373.208 339.02 373.816 338.588 374.616C338.172 375.4 337.964 376.336 337.964 377.424C337.964 378.496 338.172 379.44 338.588 380.256C339.02 381.056 339.604 381.672 340.34 382.104C341.076 382.52 341.908 382.728 342.836 382.728C343.732 382.728 344.548 382.512 345.284 382.08C346.036 381.648 346.628 381.032 347.06 380.232C347.492 379.432 347.708 378.504 347.708 377.448ZM353.175 377.448C353.175 376.088 353.447 374.904 353.991 373.896C354.535 372.872 355.287 372.088 356.247 371.544C357.207 370.984 358.303 370.704 359.535 370.704C361.151 370.704 362.479 371.104 363.519 371.904C364.575 372.704 365.255 373.792 365.559 375.168H363.759C363.535 374.224 363.047 373.488 362.295 372.96C361.559 372.416 360.639 372.144 359.535 372.144C358.655 372.144 357.863 372.344 357.159 372.744C356.455 373.144 355.895 373.744 355.479 374.544C355.079 375.328 354.879 376.296 354.879 377.448C354.879 378.6 355.079 379.576 355.479 380.376C355.895 381.176 356.455 381.776 357.159 382.176C357.863 382.576 358.655 382.776 359.535 382.776C360.639 382.776 361.559 382.512 362.295 381.984C363.047 381.44 363.535 380.688 363.759 379.728H365.559C365.255 381.072 364.575 382.152 363.519 382.968C362.463 383.784 361.135 384.192 359.535 384.192C358.303 384.192 357.207 383.92 356.247 383.376C355.287 382.816 354.535 382.032 353.991 381.024C353.447 380 353.175 378.808 353.175 377.448ZM375.622 370.656C376.614 370.656 377.502 370.864 378.286 371.28C379.086 371.696 379.71 372.336 380.158 373.2C380.622 374.048 380.854 375.088 380.854 376.32V384H379.198V376.512C379.198 375.088 378.838 374 378.118 373.248C377.414 372.496 376.446 372.12 375.214 372.12C373.95 372.12 372.942 372.52 372.19 373.32C371.438 374.12 371.062 375.296 371.062 376.848V384H369.382V366.24H371.062V373.128C371.478 372.344 372.086 371.736 372.886 371.304C373.702 370.872 374.614 370.656 375.622 370.656ZM386.129 368.424C385.793 368.424 385.505 368.304 385.265 368.064C385.025 367.824 384.905 367.528 384.905 367.176C384.905 366.824 385.025 366.536 385.265 366.312C385.505 366.072 385.793 365.952 386.129 365.952C386.465 365.952 386.753 366.072 386.993 366.312C387.233 366.536 387.353 366.824 387.353 367.176C387.353 367.528 387.233 367.824 386.993 368.064C386.753 368.304 386.465 368.424 386.129 368.424ZM386.969 370.896V384H385.289V370.896H386.969ZM397.638 370.656C399.206 370.656 400.486 371.144 401.478 372.12C402.47 373.08 402.966 374.48 402.966 376.32V384H401.31V376.512C401.31 375.088 400.95 374 400.23 373.248C399.526 372.496 398.558 372.12 397.326 372.12C396.062 372.12 395.054 372.52 394.302 373.32C393.55 374.12 393.174 375.296 393.174 376.848V384H391.494V370.896H393.174V373.128C393.59 372.328 394.19 371.72 394.974 371.304C395.758 370.872 396.646 370.656 397.638 370.656ZM419.257 376.776C419.257 377.352 419.241 377.792 419.209 378.096H408.337C408.385 379.088 408.625 379.936 409.057 380.64C409.489 381.344 410.057 381.88 410.761 382.248C411.465 382.6 412.233 382.776 413.065 382.776C414.153 382.776 415.065 382.512 415.801 381.984C416.553 381.456 417.049 380.744 417.289 379.848H419.065C418.745 381.128 418.057 382.176 417.001 382.992C415.961 383.792 414.649 384.192 413.065 384.192C411.833 384.192 410.729 383.92 409.753 383.376C408.777 382.816 408.009 382.032 407.449 381.024C406.905 380 406.633 378.808 406.633 377.448C406.633 376.088 406.905 374.896 407.449 373.872C407.993 372.848 408.753 372.064 409.729 371.52C410.705 370.976 411.817 370.704 413.065 370.704C414.313 370.704 415.401 370.976 416.329 371.52C417.273 372.064 417.993 372.8 418.489 373.728C419.001 374.64 419.257 375.656 419.257 376.776ZM417.553 376.728C417.569 375.752 417.369 374.92 416.953 374.232C416.553 373.544 416.001 373.024 415.297 372.672C414.593 372.32 413.825 372.144 412.993 372.144C411.745 372.144 410.681 372.544 409.801 373.344C408.921 374.144 408.433 375.272 408.337 376.728H417.553ZM432.037 382.632H438.061V384H430.357V367.224H432.037V382.632ZM453.034 376.776C453.034 377.352 453.018 377.792 452.986 378.096H442.114C442.162 379.088 442.402 379.936 442.834 380.64C443.266 381.344 443.834 381.88 444.538 382.248C445.242 382.6 446.01 382.776 446.842 382.776C447.93 382.776 448.842 382.512 449.578 381.984C450.33 381.456 450.826 380.744 451.066 379.848H452.842C452.522 381.128 451.834 382.176 450.778 382.992C449.738 383.792 448.426 384.192 446.842 384.192C445.61 384.192 444.506 383.92 443.53 383.376C442.554 382.816 441.786 382.032 441.226 381.024C440.682 380 440.41 378.808 440.41 377.448C440.41 376.088 440.682 374.896 441.226 373.872C441.77 372.848 442.53 372.064 443.506 371.52C444.482 370.976 445.594 370.704 446.842 370.704C448.09 370.704 449.178 370.976 450.106 371.52C451.05 372.064 451.77 372.8 452.266 373.728C452.778 374.64 453.034 375.656 453.034 376.776ZM451.33 376.728C451.346 375.752 451.146 374.92 450.73 374.232C450.33 373.544 449.778 373.024 449.074 372.672C448.37 372.32 447.602 372.144 446.77 372.144C445.522 372.144 444.458 372.544 443.578 373.344C442.698 374.144 442.21 375.272 442.114 376.728H451.33ZM456.06 377.424C456.06 376.08 456.324 374.904 456.852 373.896C457.396 372.872 458.14 372.088 459.084 371.544C460.044 370.984 461.124 370.704 462.324 370.704C463.572 370.704 464.644 370.992 465.54 371.568C466.452 372.144 467.108 372.88 467.508 373.776V370.896H469.188V384H467.508V381.096C467.092 381.992 466.428 382.736 465.516 383.328C464.62 383.904 463.548 384.192 462.3 384.192C461.116 384.192 460.044 383.912 459.084 383.352C458.14 382.792 457.396 382 456.852 380.976C456.324 379.952 456.06 378.768 456.06 377.424ZM467.508 377.448C467.508 376.392 467.292 375.464 466.86 374.664C466.428 373.864 465.836 373.248 465.084 372.816C464.348 372.384 463.532 372.168 462.636 372.168C461.708 372.168 460.876 372.376 460.14 372.792C459.404 373.208 458.82 373.816 458.388 374.616C457.972 375.4 457.764 376.336 457.764 377.424C457.764 378.496 457.972 379.44 458.388 380.256C458.82 381.056 459.404 381.672 460.14 382.104C460.876 382.52 461.708 382.728 462.636 382.728C463.532 382.728 464.348 382.512 465.084 382.08C465.836 381.648 466.428 381.032 466.86 380.232C467.292 379.432 467.508 378.504 467.508 377.448ZM475.423 373.224C475.791 372.408 476.351 371.776 477.103 371.328C477.871 370.88 478.807 370.656 479.911 370.656V372.408H479.455C478.239 372.408 477.263 372.736 476.527 373.392C475.791 374.048 475.423 375.144 475.423 376.68V384H473.743V370.896H475.423V373.224ZM489.303 370.656C490.871 370.656 492.151 371.144 493.143 372.12C494.135 373.08 494.631 374.48 494.631 376.32V384H492.975V376.512C492.975 375.088 492.615 374 491.895 373.248C491.191 372.496 490.223 372.12 488.991 372.12C487.727 372.12 486.719 372.52 485.967 373.32C485.215 374.12 484.839 375.296 484.839 376.848V384H483.159V370.896H484.839V373.128C485.255 372.328 485.855 371.72 486.639 371.304C487.423 370.872 488.311 370.656 489.303 370.656ZM499.906 368.424C499.57 368.424 499.282 368.304 499.042 368.064C498.802 367.824 498.682 367.528 498.682 367.176C498.682 366.824 498.802 366.536 499.042 366.312C499.282 366.072 499.57 365.952 499.906 365.952C500.242 365.952 500.53 366.072 500.77 366.312C501.01 366.536 501.13 366.824 501.13 367.176C501.13 367.528 501.01 367.824 500.77 368.064C500.53 368.304 500.242 368.424 499.906 368.424ZM500.746 370.896V384H499.066V370.896H500.746ZM511.414 370.656C512.982 370.656 514.262 371.144 515.254 372.12C516.246 373.08 516.742 374.48 516.742 376.32V384H515.086V376.512C515.086 375.088 514.726 374 514.006 373.248C513.302 372.496 512.334 372.12 511.102 372.12C509.838 372.12 508.83 372.52 508.078 373.32C507.326 374.12 506.95 375.296 506.95 376.848V384H505.27V370.896H506.95V373.128C507.366 372.328 507.966 371.72 508.75 371.304C509.534 370.872 510.422 370.656 511.414 370.656ZM526.674 370.704C527.906 370.704 528.978 370.992 529.89 371.568C530.802 372.144 531.458 372.872 531.858 373.752V370.896H533.538V384.336C533.538 385.536 533.274 386.6 532.746 387.528C532.234 388.456 531.514 389.168 530.586 389.664C529.658 390.176 528.602 390.432 527.418 390.432C525.738 390.432 524.338 390.032 523.218 389.232C522.114 388.432 521.426 387.344 521.154 385.968H522.81C523.098 386.88 523.642 387.608 524.442 388.152C525.258 388.696 526.25 388.968 527.418 388.968C528.266 388.968 529.026 388.784 529.698 388.416C530.37 388.064 530.898 387.536 531.282 386.832C531.666 386.128 531.858 385.296 531.858 384.336V381.096C531.442 381.992 530.778 382.736 529.866 383.328C528.97 383.904 527.906 384.192 526.674 384.192C525.474 384.192 524.394 383.912 523.434 383.352C522.49 382.792 521.746 382 521.202 380.976C520.674 379.952 520.41 378.768 520.41 377.424C520.41 376.08 520.674 374.904 521.202 373.896C521.746 372.872 522.49 372.088 523.434 371.544C524.394 370.984 525.474 370.704 526.674 370.704ZM531.858 377.448C531.858 376.392 531.642 375.464 531.21 374.664C530.778 373.864 530.186 373.248 529.434 372.816C528.698 372.384 527.882 372.168 526.986 372.168C526.058 372.168 525.226 372.376 524.49 372.792C523.754 373.208 523.17 373.816 522.738 374.616C522.322 375.4 522.114 376.336 522.114 377.424C522.114 378.496 522.322 379.44 522.738 380.256C523.17 381.056 523.754 381.672 524.49 382.104C525.226 382.52 526.058 382.728 526.986 382.728C527.882 382.728 528.698 382.512 529.434 382.08C530.186 381.648 530.778 381.032 531.21 380.232C531.642 379.432 531.858 378.504 531.858 377.448ZM549.911 384.192C548.407 384.192 547.175 383.848 546.215 383.16C545.271 382.456 544.743 381.504 544.631 380.304H546.359C546.439 381.04 546.783 381.64 547.391 382.104C548.015 382.552 548.847 382.776 549.887 382.776C550.799 382.776 551.511 382.56 552.023 382.128C552.551 381.696 552.815 381.16 552.815 380.52C552.815 380.072 552.671 379.704 552.383 379.416C552.095 379.128 551.727 378.904 551.279 378.744C550.847 378.568 550.255 378.384 549.503 378.192C548.527 377.936 547.735 377.68 547.127 377.424C546.519 377.168 545.999 376.792 545.567 376.296C545.151 375.784 544.943 375.104 544.943 374.256C544.943 373.616 545.135 373.024 545.519 372.48C545.903 371.936 546.447 371.504 547.151 371.184C547.855 370.864 548.655 370.704 549.551 370.704C550.959 370.704 552.095 371.064 552.959 371.784C553.823 372.488 554.287 373.464 554.351 374.712H552.671C552.623 373.944 552.319 373.328 551.759 372.864C551.215 372.384 550.463 372.144 549.503 372.144C548.655 372.144 547.967 372.344 547.439 372.744C546.911 373.144 546.647 373.64 546.647 374.232C546.647 374.744 546.799 375.168 547.103 375.504C547.423 375.824 547.815 376.08 548.279 376.272C548.743 376.448 549.367 376.648 550.151 376.872C551.095 377.128 551.847 377.376 552.407 377.616C552.967 377.856 553.447 378.208 553.847 378.672C554.247 379.136 554.455 379.752 554.471 380.52C554.471 381.224 554.279 381.856 553.895 382.416C553.511 382.96 552.975 383.392 552.287 383.712C551.599 384.032 550.807 384.192 549.911 384.192ZM569.154 370.896L561.378 390.168H559.626L562.17 383.928L556.794 370.896H558.642L563.106 382.08L567.426 370.896H569.154ZM576.664 384.192C575.16 384.192 573.928 383.848 572.968 383.16C572.024 382.456 571.496 381.504 571.384 380.304H573.112C573.192 381.04 573.536 381.64 574.144 382.104C574.768 382.552 575.6 382.776 576.64 382.776C577.552 382.776 578.264 382.56 578.776 382.128C579.304 381.696 579.568 381.16 579.568 380.52C579.568 380.072 579.424 379.704 579.136 379.416C578.848 379.128 578.48 378.904 578.032 378.744C577.6 378.568 577.008 378.384 576.256 378.192C575.28 377.936 574.488 377.68 573.88 377.424C573.272 377.168 572.752 376.792 572.32 376.296C571.904 375.784 571.696 375.104 571.696 374.256C571.696 373.616 571.888 373.024 572.272 372.48C572.656 371.936 573.2 371.504 573.904 371.184C574.608 370.864 575.408 370.704 576.304 370.704C577.712 370.704 578.848 371.064 579.712 371.784C580.576 372.488 581.04 373.464 581.104 374.712H579.424C579.376 373.944 579.072 373.328 578.512 372.864C577.968 372.384 577.216 372.144 576.256 372.144C575.408 372.144 574.72 372.344 574.192 372.744C573.664 373.144 573.4 373.64 573.4 374.232C573.4 374.744 573.552 375.168 573.856 375.504C574.176 375.824 574.568 376.08 575.032 376.272C575.496 376.448 576.12 376.648 576.904 376.872C577.848 377.128 578.6 377.376 579.16 377.616C579.72 377.856 580.2 378.208 580.6 378.672C581 379.136 581.208 379.752 581.224 380.52C581.224 381.224 581.032 381.856 580.648 382.416C580.264 382.96 579.728 383.392 579.04 383.712C578.352 384.032 577.56 384.192 576.664 384.192ZM587.29 372.312V380.448C587.29 381.248 587.442 381.8 587.746 382.104C588.05 382.408 588.586 382.56 589.354 382.56H590.89V384H589.09C587.906 384 587.026 383.728 586.45 383.184C585.874 382.624 585.586 381.712 585.586 380.448V372.312H583.762V370.896H585.586V367.608H587.29V370.896H590.89V372.312H587.29ZM606.237 376.776C606.237 377.352 606.221 377.792 606.189 378.096H595.317C595.365 379.088 595.605 379.936 596.037 380.64C596.469 381.344 597.037 381.88 597.741 382.248C598.445 382.6 599.213 382.776 600.045 382.776C601.133 382.776 602.045 382.512 602.781 381.984C603.533 381.456 604.029 380.744 604.269 379.848H606.045C605.725 381.128 605.037 382.176 603.981 382.992C602.941 383.792 601.629 384.192 600.045 384.192C598.813 384.192 597.709 383.92 596.733 383.376C595.757 382.816 594.989 382.032 594.429 381.024C593.885 380 593.613 378.808 593.613 377.448C593.613 376.088 593.885 374.896 594.429 373.872C594.973 372.848 595.733 372.064 596.709 371.52C597.685 370.976 598.797 370.704 600.045 370.704C601.293 370.704 602.381 370.976 603.309 371.52C604.253 372.064 604.973 372.8 605.469 373.728C605.981 374.64 606.237 375.656 606.237 376.776ZM604.533 376.728C604.549 375.752 604.349 374.92 603.933 374.232C603.533 373.544 602.981 373.024 602.277 372.672C601.573 372.32 600.805 372.144 599.973 372.144C598.725 372.144 597.661 372.544 596.781 373.344C595.901 374.144 595.413 375.272 595.317 376.728H604.533ZM625.63 370.656C627.166 370.656 628.414 371.144 629.374 372.12C630.35 373.08 630.838 374.48 630.838 376.32V384H629.182V376.512C629.182 375.088 628.838 374 628.15 373.248C627.462 372.496 626.526 372.12 625.342 372.12C624.11 372.12 623.126 372.528 622.39 373.344C621.654 374.16 621.286 375.344 621.286 376.896V384H619.63V376.512C619.63 375.088 619.286 374 618.598 373.248C617.91 372.496 616.966 372.12 615.766 372.12C614.534 372.12 613.55 372.528 612.814 373.344C612.078 374.16 611.71 375.344 611.71 376.896V384H610.03V370.896H611.71V373.152C612.126 372.336 612.718 371.72 613.486 371.304C614.254 370.872 615.11 370.656 616.054 370.656C617.19 370.656 618.182 370.928 619.03 371.472C619.894 372.016 620.518 372.816 620.902 373.872C621.254 372.832 621.854 372.04 622.702 371.496C623.566 370.936 624.542 370.656 625.63 370.656ZM647.755 372.312H644.707V384H643.027V372.312H641.203V370.896H643.027V369.984C643.027 368.56 643.387 367.512 644.107 366.84C644.843 366.168 646.027 365.832 647.659 365.832V367.272C646.571 367.272 645.803 367.48 645.355 367.896C644.923 368.312 644.707 369.008 644.707 369.984V370.896H647.755V372.312ZM656.856 384.192C655.624 384.192 654.512 383.92 653.52 383.376C652.544 382.816 651.768 382.032 651.192 381.024C650.632 380 650.352 378.808 650.352 377.448C650.352 376.088 650.64 374.904 651.216 373.896C651.792 372.872 652.576 372.088 653.568 371.544C654.56 370.984 655.672 370.704 656.904 370.704C658.136 370.704 659.248 370.984 660.24 371.544C661.248 372.088 662.032 372.872 662.592 373.896C663.168 374.904 663.456 376.088 663.456 377.448C663.456 378.792 663.168 379.976 662.592 381C662.016 382.024 661.224 382.816 660.216 383.376C659.208 383.92 658.088 384.192 656.856 384.192ZM656.856 382.728C657.72 382.728 658.52 382.536 659.256 382.152C659.992 381.752 660.584 381.16 661.032 380.376C661.496 379.576 661.728 378.6 661.728 377.448C661.728 376.296 661.504 375.328 661.056 374.544C660.608 373.744 660.016 373.152 659.28 372.768C658.544 372.368 657.744 372.168 656.88 372.168C656.016 372.168 655.216 372.368 654.48 372.768C653.744 373.152 653.152 373.744 652.704 374.544C652.272 375.328 652.056 376.296 652.056 377.448C652.056 378.6 652.272 379.576 652.704 380.376C653.152 381.16 653.736 381.752 654.456 382.152C655.192 382.536 655.992 382.728 656.856 382.728ZM668.919 373.224C669.287 372.408 669.847 371.776 670.599 371.328C671.367 370.88 672.303 370.656 673.407 370.656V372.408H672.951C671.735 372.408 670.759 372.736 670.023 373.392C669.287 374.048 668.919 375.144 668.919 376.68V384H667.239V370.896H668.919V373.224ZM683.192 377.424C683.192 376.08 683.464 374.904 684.008 373.896C684.552 372.872 685.296 372.088 686.24 371.544C687.2 370.984 688.28 370.704 689.48 370.704C690.632 370.704 691.672 370.984 692.6 371.544C693.528 372.104 694.208 372.832 694.64 373.728V366.24H696.32V384H694.64V381.072C694.24 381.984 693.584 382.736 692.672 383.328C691.76 383.904 690.688 384.192 689.456 384.192C688.256 384.192 687.176 383.912 686.216 383.352C685.272 382.792 684.528 382 683.984 380.976C683.456 379.952 683.192 378.768 683.192 377.424ZM694.64 377.448C694.64 376.392 694.424 375.464 693.992 374.664C693.56 373.864 692.968 373.248 692.216 372.816C691.48 372.384 690.664 372.168 689.768 372.168C688.84 372.168 688.008 372.376 687.272 372.792C686.536 373.208 685.952 373.816 685.52 374.616C685.104 375.4 684.896 376.336 684.896 377.424C684.896 378.496 685.104 379.44 685.52 380.256C685.952 381.056 686.536 381.672 687.272 382.104C688.008 382.52 688.84 382.728 689.768 382.728C690.664 382.728 691.48 382.512 692.216 382.08C692.968 381.648 693.56 381.032 693.992 380.232C694.424 379.432 694.64 378.504 694.64 377.448ZM712.731 376.776C712.731 377.352 712.715 377.792 712.683 378.096H701.811C701.859 379.088 702.099 379.936 702.531 380.64C702.963 381.344 703.531 381.88 704.235 382.248C704.939 382.6 705.707 382.776 706.539 382.776C707.627 382.776 708.539 382.512 709.275 381.984C710.027 381.456 710.523 380.744 710.763 379.848H712.539C712.219 381.128 711.531 382.176 710.475 382.992C709.435 383.792 708.123 384.192 706.539 384.192C705.307 384.192 704.203 383.92 703.227 383.376C702.251 382.816 701.483 382.032 700.923 381.024C700.379 380 700.107 378.808 700.107 377.448C700.107 376.088 700.379 374.896 700.923 373.872C701.467 372.848 702.227 372.064 703.203 371.52C704.179 370.976 705.291 370.704 706.539 370.704C707.787 370.704 708.875 370.976 709.803 371.52C710.747 372.064 711.467 372.8 711.963 373.728C712.475 374.64 712.731 375.656 712.731 376.776ZM711.027 376.728C711.043 375.752 710.843 374.92 710.427 374.232C710.027 373.544 709.475 373.024 708.771 372.672C708.067 372.32 707.299 372.144 706.467 372.144C705.219 372.144 704.155 372.544 703.275 373.344C702.395 374.144 701.907 375.272 701.811 376.728H711.027ZM718.709 372.312V380.448C718.709 381.248 718.861 381.8 719.165 382.104C719.469 382.408 720.005 382.56 720.773 382.56H722.309V384H720.509C719.325 384 718.445 383.728 717.869 383.184C717.293 382.624 717.005 381.712 717.005 380.448V372.312H715.181V370.896H717.005V367.608H718.709V370.896H722.309V372.312H718.709ZM737.656 376.776C737.656 377.352 737.64 377.792 737.608 378.096H726.736C726.784 379.088 727.024 379.936 727.456 380.64C727.888 381.344 728.456 381.88 729.16 382.248C729.864 382.6 730.632 382.776 731.464 382.776C732.552 382.776 733.464 382.512 734.2 381.984C734.952 381.456 735.448 380.744 735.688 379.848H737.464C737.144 381.128 736.456 382.176 735.4 382.992C734.36 383.792 733.048 384.192 731.464 384.192C730.232 384.192 729.128 383.92 728.152 383.376C727.176 382.816 726.408 382.032 725.848 381.024C725.304 380 725.032 378.808 725.032 377.448C725.032 376.088 725.304 374.896 725.848 373.872C726.392 372.848 727.152 372.064 728.128 371.52C729.104 370.976 730.216 370.704 731.464 370.704C732.712 370.704 733.8 370.976 734.728 371.52C735.672 372.064 736.392 372.8 736.888 373.728C737.4 374.64 737.656 375.656 737.656 376.776ZM735.952 376.728C735.968 375.752 735.768 374.92 735.352 374.232C734.952 373.544 734.4 373.024 733.696 372.672C732.992 372.32 732.224 372.144 731.392 372.144C730.144 372.144 729.08 372.544 728.2 373.344C727.32 374.144 726.832 375.272 726.736 376.728H735.952ZM740.681 377.448C740.681 376.088 740.953 374.904 741.497 373.896C742.041 372.872 742.793 372.088 743.753 371.544C744.713 370.984 745.809 370.704 747.041 370.704C748.657 370.704 749.985 371.104 751.025 371.904C752.081 372.704 752.761 373.792 753.065 375.168H751.265C751.041 374.224 750.553 373.488 749.801 372.96C749.065 372.416 748.145 372.144 747.041 372.144C746.161 372.144 745.369 372.344 744.665 372.744C743.961 373.144 743.401 373.744 742.985 374.544C742.585 375.328 742.385 376.296 742.385 377.448C742.385 378.6 742.585 379.576 742.985 380.376C743.401 381.176 743.961 381.776 744.665 382.176C745.369 382.576 746.161 382.776 747.041 382.776C748.145 382.776 749.065 382.512 749.801 381.984C750.553 381.44 751.041 380.688 751.265 379.728H753.065C752.761 381.072 752.081 382.152 751.025 382.968C749.969 383.784 748.641 384.192 747.041 384.192C745.809 384.192 744.713 383.92 743.753 383.376C742.793 382.816 742.041 382.032 741.497 381.024C740.953 380 740.681 378.808 740.681 377.448ZM759.072 372.312V380.448C759.072 381.248 759.224 381.8 759.528 382.104C759.832 382.408 760.368 382.56 761.136 382.56H762.672V384H760.872C759.688 384 758.808 383.728 758.232 383.184C757.656 382.624 757.368 381.712 757.368 380.448V372.312H755.544V370.896H757.368V367.608H759.072V370.896H762.672V372.312H759.072ZM767.003 368.424C766.667 368.424 766.379 368.304 766.139 368.064C765.899 367.824 765.779 367.528 765.779 367.176C765.779 366.824 765.899 366.536 766.139 366.312C766.379 366.072 766.667 365.952 767.003 365.952C767.339 365.952 767.627 366.072 767.867 366.312C768.107 366.536 768.227 366.824 768.227 367.176C768.227 367.528 768.107 367.824 767.867 368.064C767.627 368.304 767.339 368.424 767.003 368.424ZM767.843 370.896V384H766.163V370.896H767.843ZM778.511 370.656C780.079 370.656 781.359 371.144 782.351 372.12C783.343 373.08 783.839 374.48 783.839 376.32V384H782.183V376.512C782.183 375.088 781.823 374 781.103 373.248C780.399 372.496 779.431 372.12 778.199 372.12C776.935 372.12 775.927 372.52 775.175 373.32C774.423 374.12 774.047 375.296 774.047 376.848V384H772.367V370.896H774.047V373.128C774.463 372.328 775.063 371.72 775.847 371.304C776.631 370.872 777.519 370.656 778.511 370.656ZM793.771 370.704C795.003 370.704 796.075 370.992 796.987 371.568C797.899 372.144 798.555 372.872 798.955 373.752V370.896H800.635V384.336C800.635 385.536 800.371 386.6 799.843 387.528C799.331 388.456 798.611 389.168 797.683 389.664C796.755 390.176 795.699 390.432 794.515 390.432C792.835 390.432 791.435 390.032 790.315 389.232C789.211 388.432 788.523 387.344 788.251 385.968H789.907C790.195 386.88 790.739 387.608 791.539 388.152C792.355 388.696 793.347 388.968 794.515 388.968C795.363 388.968 796.123 388.784 796.795 388.416C797.467 388.064 797.995 387.536 798.379 386.832C798.763 386.128 798.955 385.296 798.955 384.336V381.096C798.539 381.992 797.875 382.736 796.963 383.328C796.067 383.904 795.003 384.192 793.771 384.192C792.571 384.192 791.491 383.912 790.531 383.352C789.587 382.792 788.843 382 788.299 380.976C787.771 379.952 787.507 378.768 787.507 377.424C787.507 376.08 787.771 374.904 788.299 373.896C788.843 372.872 789.587 372.088 790.531 371.544C791.491 370.984 792.571 370.704 793.771 370.704ZM798.955 377.448C798.955 376.392 798.739 375.464 798.307 374.664C797.875 373.864 797.283 373.248 796.531 372.816C795.795 372.384 794.979 372.168 794.083 372.168C793.155 372.168 792.323 372.376 791.587 372.792C790.851 373.208 790.267 373.816 789.835 374.616C789.419 375.4 789.211 376.336 789.211 377.424C789.211 378.496 789.419 379.44 789.835 380.256C790.267 381.056 790.851 381.672 791.587 382.104C792.323 382.52 793.155 382.728 794.083 382.728C794.979 382.728 795.795 382.512 796.531 382.08C797.283 381.648 797.875 381.032 798.307 380.232C798.739 379.432 798.955 378.504 798.955 377.448ZM814.68 372.312V380.448C814.68 381.248 814.832 381.8 815.136 382.104C815.44 382.408 815.976 382.56 816.744 382.56H818.28V384H816.48C815.296 384 814.416 383.728 813.84 383.184C813.264 382.624 812.976 381.712 812.976 380.448V372.312H811.152V370.896H812.976V367.608H814.68V370.896H818.28V372.312H814.68ZM828.01 370.656C829.002 370.656 829.89 370.864 830.674 371.28C831.474 371.696 832.098 372.336 832.546 373.2C833.01 374.048 833.242 375.088 833.242 376.32V384H831.586V376.512C831.586 375.088 831.226 374 830.506 373.248C829.802 372.496 828.834 372.12 827.602 372.12C826.338 372.12 825.33 372.52 824.578 373.32C823.826 374.12 823.45 375.296 823.45 376.848V384H821.77V366.24H823.45V373.128C823.866 372.344 824.474 371.736 825.274 371.304C826.09 370.872 827.002 370.656 828.01 370.656ZM849.534 376.776C849.534 377.352 849.518 377.792 849.486 378.096H838.614C838.662 379.088 838.902 379.936 839.334 380.64C839.766 381.344 840.334 381.88 841.038 382.248C841.742 382.6 842.51 382.776 843.342 382.776C844.43 382.776 845.342 382.512 846.078 381.984C846.83 381.456 847.326 380.744 847.566 379.848H849.342C849.022 381.128 848.334 382.176 847.278 382.992C846.238 383.792 844.926 384.192 843.342 384.192C842.11 384.192 841.006 383.92 840.03 383.376C839.054 382.816 838.286 382.032 837.726 381.024C837.182 380 836.91 378.808 836.91 377.448C836.91 376.088 837.182 374.896 837.726 373.872C838.27 372.848 839.03 372.064 840.006 371.52C840.982 370.976 842.094 370.704 843.342 370.704C844.59 370.704 845.678 370.976 846.606 371.52C847.55 372.064 848.27 372.8 848.766 373.728C849.278 374.64 849.534 375.656 849.534 376.776ZM847.83 376.728C847.846 375.752 847.646 374.92 847.23 374.232C846.83 373.544 846.278 373.024 845.574 372.672C844.87 372.32 844.102 372.144 843.27 372.144C842.022 372.144 840.958 372.544 840.078 373.344C839.198 374.144 838.71 375.272 838.614 376.728H847.83ZM866.37 384.192C865.138 384.192 864.026 383.92 863.034 383.376C862.058 382.816 861.282 382.032 860.706 381.024C860.146 380 859.866 378.808 859.866 377.448C859.866 376.088 860.154 374.904 860.73 373.896C861.306 372.872 862.09 372.088 863.082 371.544C864.074 370.984 865.186 370.704 866.418 370.704C867.65 370.704 868.762 370.984 869.754 371.544C870.762 372.088 871.546 372.872 872.106 373.896C872.682 374.904 872.97 376.088 872.97 377.448C872.97 378.792 872.682 379.976 872.106 381C871.53 382.024 870.738 382.816 869.73 383.376C868.722 383.92 867.602 384.192 866.37 384.192ZM866.37 382.728C867.234 382.728 868.034 382.536 868.77 382.152C869.506 381.752 870.098 381.16 870.546 380.376C871.01 379.576 871.242 378.6 871.242 377.448C871.242 376.296 871.018 375.328 870.57 374.544C870.122 373.744 869.53 373.152 868.794 372.768C868.058 372.368 867.258 372.168 866.394 372.168C865.53 372.168 864.73 372.368 863.994 372.768C863.258 373.152 862.666 373.744 862.218 374.544C861.786 375.328 861.57 376.296 861.57 377.448C861.57 378.6 861.786 379.576 862.218 380.376C862.666 381.16 863.25 381.752 863.97 382.152C864.706 382.536 865.506 382.728 866.37 382.728ZM882.896 370.656C884.464 370.656 885.744 371.144 886.736 372.12C887.728 373.08 888.224 374.48 888.224 376.32V384H886.568V376.512C886.568 375.088 886.208 374 885.488 373.248C884.784 372.496 883.816 372.12 882.584 372.12C881.32 372.12 880.312 372.52 879.56 373.32C878.808 374.12 878.432 375.296 878.432 376.848V384H876.752V370.896H878.432V373.128C878.848 372.328 879.448 371.72 880.232 371.304C881.016 370.872 881.904 370.656 882.896 370.656ZM897.172 384.192C895.668 384.192 894.436 383.848 893.476 383.16C892.532 382.456 892.004 381.504 891.892 380.304H893.62C893.7 381.04 894.044 381.64 894.652 382.104C895.276 382.552 896.108 382.776 897.148 382.776C898.06 382.776 898.772 382.56 899.284 382.128C899.812 381.696 900.076 381.16 900.076 380.52C900.076 380.072 899.932 379.704 899.644 379.416C899.356 379.128 898.988 378.904 898.54 378.744C898.108 378.568 897.516 378.384 896.764 378.192C895.788 377.936 894.996 377.68 894.388 377.424C893.78 377.168 893.26 376.792 892.828 376.296C892.412 375.784 892.204 375.104 892.204 374.256C892.204 373.616 892.396 373.024 892.78 372.48C893.164 371.936 893.708 371.504 894.412 371.184C895.116 370.864 895.916 370.704 896.812 370.704C898.22 370.704 899.356 371.064 900.22 371.784C901.084 372.488 901.548 373.464 901.612 374.712H899.932C899.884 373.944 899.58 373.328 899.02 372.864C898.476 372.384 897.724 372.144 896.764 372.144C895.916 372.144 895.228 372.344 894.7 372.744C894.172 373.144 893.908 373.64 893.908 374.232C893.908 374.744 894.06 375.168 894.364 375.504C894.684 375.824 895.076 376.08 895.54 376.272C896.004 376.448 896.628 376.648 897.412 376.872C898.356 377.128 899.108 377.376 899.668 377.616C900.228 377.856 900.708 378.208 901.108 378.672C901.508 379.136 901.716 379.752 901.732 380.52C901.732 381.224 901.54 381.856 901.156 382.416C900.772 382.96 900.236 383.392 899.548 383.712C898.86 384.032 898.068 384.192 897.172 384.192ZM917.47 376.776C917.47 377.352 917.454 377.792 917.422 378.096H906.55C906.598 379.088 906.838 379.936 907.27 380.64C907.702 381.344 908.27 381.88 908.974 382.248C909.678 382.6 910.446 382.776 911.278 382.776C912.366 382.776 913.278 382.512 914.014 381.984C914.766 381.456 915.262 380.744 915.502 379.848H917.278C916.958 381.128 916.27 382.176 915.214 382.992C914.174 383.792 912.862 384.192 911.278 384.192C910.046 384.192 908.942 383.92 907.966 383.376C906.99 382.816 906.222 382.032 905.662 381.024C905.118 380 904.846 378.808 904.846 377.448C904.846 376.088 905.118 374.896 905.662 373.872C906.206 372.848 906.966 372.064 907.942 371.52C908.918 370.976 910.03 370.704 911.278 370.704C912.526 370.704 913.614 370.976 914.542 371.52C915.486 372.064 916.206 372.8 916.702 373.728C917.214 374.64 917.47 375.656 917.47 376.776ZM915.766 376.728C915.782 375.752 915.582 374.92 915.166 374.232C914.766 373.544 914.214 373.024 913.51 372.672C912.806 372.32 912.038 372.144 911.206 372.144C909.958 372.144 908.894 372.544 908.014 373.344C907.134 374.144 906.646 375.272 906.55 376.728H915.766ZM923.448 372.312V380.448C923.448 381.248 923.6 381.8 923.904 382.104C924.208 382.408 924.744 382.56 925.512 382.56H927.048V384H925.248C924.064 384 923.184 383.728 922.608 383.184C922.032 382.624 921.744 381.712 921.744 380.448V372.312H919.92V370.896H921.744V367.608H923.448V370.896H927.048V372.312H923.448ZM937.076 377.424C937.076 376.08 937.34 374.904 937.868 373.896C938.412 372.872 939.156 372.088 940.1 371.544C941.06 370.984 942.14 370.704 943.34 370.704C944.588 370.704 945.66 370.992 946.556 371.568C947.468 372.144 948.124 372.88 948.524 373.776V370.896H950.204V384H948.524V381.096C948.108 381.992 947.444 382.736 946.532 383.328C945.636 383.904 944.564 384.192 943.316 384.192C942.132 384.192 941.06 383.912 940.1 383.352C939.156 382.792 938.412 382 937.868 380.976C937.34 379.952 937.076 378.768 937.076 377.424ZM948.524 377.448C948.524 376.392 948.308 375.464 947.876 374.664C947.444 373.864 946.852 373.248 946.1 372.816C945.364 372.384 944.548 372.168 943.652 372.168C942.724 372.168 941.892 372.376 941.156 372.792C940.42 373.208 939.836 373.816 939.404 374.616C938.988 375.4 938.78 376.336 938.78 377.424C938.78 378.496 938.988 379.44 939.404 380.256C939.836 381.056 940.42 381.672 941.156 382.104C941.892 382.52 942.724 382.728 943.652 382.728C944.548 382.728 945.364 382.512 946.1 382.08C946.852 381.648 947.444 381.032 947.876 380.232C948.308 379.432 948.524 378.504 948.524 377.448ZM960.904 370.656C962.472 370.656 963.752 371.144 964.744 372.12C965.736 373.08 966.232 374.48 966.232 376.32V384H964.576V376.512C964.576 375.088 964.216 374 963.496 373.248C962.792 372.496 961.824 372.12 960.592 372.12C959.328 372.12 958.32 372.52 957.568 373.32C956.816 374.12 956.44 375.296 956.44 376.848V384H954.76V370.896H956.44V373.128C956.856 372.328 957.456 371.72 958.24 371.304C959.024 370.872 959.912 370.656 960.904 370.656ZM969.899 377.424C969.899 376.08 970.171 374.904 970.715 373.896C971.259 372.872 972.003 372.088 972.947 371.544C973.907 370.984 974.987 370.704 976.187 370.704C977.339 370.704 978.379 370.984 979.307 371.544C980.235 372.104 980.915 372.832 981.347 373.728V366.24H983.027V384H981.347V381.072C980.947 381.984 980.291 382.736 979.379 383.328C978.467 383.904 977.395 384.192 976.163 384.192C974.963 384.192 973.883 383.912 972.923 383.352C971.979 382.792 971.235 382 970.691 380.976C970.163 379.952 969.899 378.768 969.899 377.424ZM981.347 377.448C981.347 376.392 981.131 375.464 980.699 374.664C980.267 373.864 979.675 373.248 978.923 372.816C978.187 372.384 977.371 372.168 976.475 372.168C975.547 372.168 974.715 372.376 973.979 372.792C973.243 373.208 972.659 373.816 972.227 374.616C971.811 375.4 971.603 376.336 971.603 377.424C971.603 378.496 971.811 379.44 972.227 380.256C972.659 381.056 973.243 381.672 973.979 382.104C974.715 382.52 975.547 382.728 976.475 382.728C977.371 382.728 978.187 382.512 978.923 382.08C979.675 381.648 980.267 381.032 980.699 380.232C981.131 379.432 981.347 378.504 981.347 377.448ZM996.544 373.776C996.96 372.896 997.616 372.168 998.512 371.592C999.424 371 1000.5 370.704 1001.75 370.704C1002.94 370.704 1004 370.984 1004.94 371.544C1005.9 372.088 1006.65 372.872 1007.18 373.896C1007.72 374.904 1007.99 376.08 1007.99 377.424C1007.99 378.768 1007.72 379.952 1007.18 380.976C1006.65 382 1005.9 382.792 1004.94 383.352C1004 383.912 1002.94 384.192 1001.75 384.192C1000.52 384.192 999.448 383.904 998.536 383.328C997.624 382.736 996.96 382 996.544 381.12V390.192H994.888V370.896H996.544V373.776ZM1006.29 377.424C1006.29 376.336 1006.07 375.4 1005.64 374.616C1005.22 373.816 1004.65 373.208 1003.91 372.792C1003.18 372.376 1002.34 372.168 1001.42 372.168C1000.52 372.168 999.696 372.384 998.944 372.816C998.208 373.248 997.624 373.864 997.192 374.664C996.76 375.464 996.544 376.392 996.544 377.448C996.544 378.504 996.76 379.432 997.192 380.232C997.624 381.032 998.208 381.648 998.944 382.08C999.696 382.512 1000.52 382.728 1001.42 382.728C1002.34 382.728 1003.18 382.52 1003.91 382.104C1004.65 381.672 1005.22 381.056 1005.64 380.256C1006.07 379.44 1006.29 378.496 1006.29 377.424ZM1013.48 373.224C1013.85 372.408 1014.41 371.776 1015.16 371.328C1015.93 370.88 1016.87 370.656 1017.97 370.656V372.408H1017.52C1016.3 372.408 1015.32 372.736 1014.59 373.392C1013.85 374.048 1013.48 375.144 1013.48 376.68V384H1011.8V370.896H1013.48V373.224ZM1033.07 376.776C1033.07 377.352 1033.06 377.792 1033.03 378.096H1022.15C1022.2 379.088 1022.44 379.936 1022.87 380.64C1023.31 381.344 1023.87 381.88 1024.58 382.248C1025.28 382.6 1026.05 382.776 1026.88 382.776C1027.97 382.776 1028.88 382.512 1029.62 381.984C1030.37 381.456 1030.87 380.744 1031.11 379.848H1032.88C1032.56 381.128 1031.87 382.176 1030.82 382.992C1029.78 383.792 1028.47 384.192 1026.88 384.192C1025.65 384.192 1024.55 383.92 1023.57 383.376C1022.59 382.816 1021.83 382.032 1021.27 381.024C1020.72 380 1020.45 378.808 1020.45 377.448C1020.45 376.088 1020.72 374.896 1021.27 373.872C1021.81 372.848 1022.57 372.064 1023.55 371.52C1024.52 370.976 1025.63 370.704 1026.88 370.704C1028.13 370.704 1029.22 370.976 1030.15 371.52C1031.09 372.064 1031.81 372.8 1032.31 373.728C1032.82 374.64 1033.07 375.656 1033.07 376.776ZM1031.37 376.728C1031.39 375.752 1031.19 374.92 1030.77 374.232C1030.37 373.544 1029.82 373.024 1029.11 372.672C1028.41 372.32 1027.64 372.144 1026.81 372.144C1025.56 372.144 1024.5 372.544 1023.62 373.344C1022.74 374.144 1022.25 375.272 1022.15 376.728H1031.37ZM1041.38 384.192C1039.88 384.192 1038.64 383.848 1037.68 383.16C1036.74 382.456 1036.21 381.504 1036.1 380.304H1037.83C1037.91 381.04 1038.25 381.64 1038.86 382.104C1039.48 382.552 1040.32 382.776 1041.36 382.776C1042.27 382.776 1042.98 382.56 1043.49 382.128C1044.02 381.696 1044.28 381.16 1044.28 380.52C1044.28 380.072 1044.14 379.704 1043.85 379.416C1043.56 379.128 1043.2 378.904 1042.75 378.744C1042.32 378.568 1041.72 378.384 1040.97 378.192C1040 377.936 1039.2 377.68 1038.6 377.424C1037.99 377.168 1037.47 376.792 1037.04 376.296C1036.62 375.784 1036.41 375.104 1036.41 374.256C1036.41 373.616 1036.6 373.024 1036.99 372.48C1037.37 371.936 1037.92 371.504 1038.62 371.184C1039.32 370.864 1040.12 370.704 1041.02 370.704C1042.43 370.704 1043.56 371.064 1044.43 371.784C1045.29 372.488 1045.76 373.464 1045.82 374.712H1044.14C1044.09 373.944 1043.79 373.328 1043.23 372.864C1042.68 372.384 1041.93 372.144 1040.97 372.144C1040.12 372.144 1039.44 372.344 1038.91 372.744C1038.38 373.144 1038.12 373.64 1038.12 374.232C1038.12 374.744 1038.27 375.168 1038.57 375.504C1038.89 375.824 1039.28 376.08 1039.75 376.272C1040.21 376.448 1040.84 376.648 1041.62 376.872C1042.56 377.128 1043.32 377.376 1043.88 377.616C1044.44 377.856 1044.92 378.208 1045.32 378.672C1045.72 379.136 1045.92 379.752 1045.94 380.52C1045.94 381.224 1045.75 381.856 1045.36 382.416C1044.98 382.96 1044.44 383.392 1043.76 383.712C1043.07 384.032 1042.28 384.192 1041.38 384.192ZM1061.68 376.776C1061.68 377.352 1061.66 377.792 1061.63 378.096H1050.76C1050.81 379.088 1051.05 379.936 1051.48 380.64C1051.91 381.344 1052.48 381.88 1053.18 382.248C1053.89 382.6 1054.65 382.776 1055.49 382.776C1056.57 382.776 1057.49 382.512 1058.22 381.984C1058.97 381.456 1059.47 380.744 1059.71 379.848H1061.49C1061.17 381.128 1060.48 382.176 1059.42 382.992C1058.38 383.792 1057.07 384.192 1055.49 384.192C1054.25 384.192 1053.15 383.92 1052.17 383.376C1051.2 382.816 1050.43 382.032 1049.87 381.024C1049.33 380 1049.05 378.808 1049.05 377.448C1049.05 376.088 1049.33 374.896 1049.87 373.872C1050.41 372.848 1051.17 372.064 1052.15 371.52C1053.13 370.976 1054.24 370.704 1055.49 370.704C1056.73 370.704 1057.82 370.976 1058.75 371.52C1059.69 372.064 1060.41 372.8 1060.91 373.728C1061.42 374.64 1061.68 375.656 1061.68 376.776ZM1059.97 376.728C1059.99 375.752 1059.79 374.92 1059.37 374.232C1058.97 373.544 1058.42 373.024 1057.72 372.672C1057.01 372.32 1056.25 372.144 1055.41 372.144C1054.17 372.144 1053.1 372.544 1052.22 373.344C1051.34 374.144 1050.85 375.272 1050.76 376.728H1059.97ZM1071.62 370.656C1073.18 370.656 1074.46 371.144 1075.46 372.12C1076.45 373.08 1076.94 374.48 1076.94 376.32V384H1075.29V376.512C1075.29 375.088 1074.93 374 1074.21 373.248C1073.5 372.496 1072.54 372.12 1071.3 372.12C1070.04 372.12 1069.03 372.52 1068.28 373.32C1067.53 374.12 1067.15 375.296 1067.15 376.848V384H1065.47V370.896H1067.15V373.128C1067.57 372.328 1068.17 371.72 1068.95 371.304C1069.74 370.872 1070.62 370.656 1071.62 370.656ZM1080.61 377.448C1080.61 376.088 1080.88 374.904 1081.43 373.896C1081.97 372.872 1082.72 372.088 1083.68 371.544C1084.64 370.984 1085.74 370.704 1086.97 370.704C1088.59 370.704 1089.92 371.104 1090.96 371.904C1092.01 372.704 1092.69 373.792 1093 375.168H1091.2C1090.97 374.224 1090.48 373.488 1089.73 372.96C1089 372.416 1088.08 372.144 1086.97 372.144C1086.09 372.144 1085.3 372.344 1084.6 372.744C1083.89 373.144 1083.33 373.744 1082.92 374.544C1082.52 375.328 1082.32 376.296 1082.32 377.448C1082.32 378.6 1082.52 379.576 1082.92 380.376C1083.33 381.176 1083.89 381.776 1084.6 382.176C1085.3 382.576 1086.09 382.776 1086.97 382.776C1088.08 382.776 1089 382.512 1089.73 381.984C1090.48 381.44 1090.97 380.688 1091.2 379.728H1093C1092.69 381.072 1092.01 382.152 1090.96 382.968C1089.9 383.784 1088.57 384.192 1086.97 384.192C1085.74 384.192 1084.64 383.92 1083.68 383.376C1082.72 382.816 1081.97 382.032 1081.43 381.024C1080.88 380 1080.61 378.808 1080.61 377.448ZM1108.67 376.776C1108.67 377.352 1108.66 377.792 1108.63 378.096H1097.75C1097.8 379.088 1098.04 379.936 1098.47 380.64C1098.91 381.344 1099.47 381.88 1100.18 382.248C1100.88 382.6 1101.65 382.776 1102.48 382.776C1103.57 382.776 1104.48 382.512 1105.22 381.984C1105.97 381.456 1106.47 380.744 1106.71 379.848H1108.48C1108.16 381.128 1107.47 382.176 1106.42 382.992C1105.38 383.792 1104.07 384.192 1102.48 384.192C1101.25 384.192 1100.15 383.92 1099.17 383.376C1098.19 382.816 1097.43 382.032 1096.87 381.024C1096.32 380 1096.05 378.808 1096.05 377.448C1096.05 376.088 1096.32 374.896 1096.87 373.872C1097.41 372.848 1098.17 372.064 1099.15 371.52C1100.12 370.976 1101.23 370.704 1102.48 370.704C1103.73 370.704 1104.82 370.976 1105.75 371.52C1106.69 372.064 1107.41 372.8 1107.91 373.728C1108.42 374.64 1108.67 375.656 1108.67 376.776ZM1106.97 376.728C1106.99 375.752 1106.79 374.92 1106.37 374.232C1105.97 373.544 1105.42 373.024 1104.71 372.672C1104.01 372.32 1103.24 372.144 1102.41 372.144C1101.16 372.144 1100.1 372.544 1099.22 373.344C1098.34 374.144 1097.85 375.272 1097.75 376.728H1106.97ZM1125.51 384.192C1124.28 384.192 1123.17 383.92 1122.17 383.376C1121.2 382.816 1120.42 382.032 1119.85 381.024C1119.29 380 1119.01 378.808 1119.01 377.448C1119.01 376.088 1119.29 374.904 1119.87 373.896C1120.45 372.872 1121.23 372.088 1122.22 371.544C1123.21 370.984 1124.33 370.704 1125.56 370.704C1126.79 370.704 1127.9 370.984 1128.89 371.544C1129.9 372.088 1130.69 372.872 1131.25 373.896C1131.82 374.904 1132.11 376.088 1132.11 377.448C1132.11 378.792 1131.82 379.976 1131.25 381C1130.67 382.024 1129.88 382.816 1128.87 383.376C1127.86 383.92 1126.74 384.192 1125.51 384.192ZM1125.51 382.728C1126.37 382.728 1127.17 382.536 1127.91 382.152C1128.65 381.752 1129.24 381.16 1129.69 380.376C1130.15 379.576 1130.38 378.6 1130.38 377.448C1130.38 376.296 1130.16 375.328 1129.71 374.544C1129.26 373.744 1128.67 373.152 1127.93 372.768C1127.2 372.368 1126.4 372.168 1125.53 372.168C1124.67 372.168 1123.87 372.368 1123.13 372.768C1122.4 373.152 1121.81 373.744 1121.36 374.544C1120.93 375.328 1120.71 376.296 1120.71 377.448C1120.71 378.6 1120.93 379.576 1121.36 380.376C1121.81 381.16 1122.39 381.752 1123.11 382.152C1123.85 382.536 1124.65 382.728 1125.51 382.728ZM1141.05 372.312H1138.01V384H1136.33V372.312H1134.5V370.896H1136.33V369.984C1136.33 368.56 1136.69 367.512 1137.41 366.84C1138.14 366.168 1139.33 365.832 1140.96 365.832V367.272C1139.87 367.272 1139.1 367.48 1138.65 367.896C1138.22 368.312 1138.01 369.008 1138.01 369.984V370.896H1141.05V372.312ZM416.296 413.424C416.296 412.08 416.568 410.904 417.112 409.896C417.656 408.872 418.4 408.088 419.344 407.544C420.304 406.984 421.384 406.704 422.584 406.704C423.736 406.704 424.776 406.984 425.704 407.544C426.632 408.104 427.312 408.832 427.744 409.728V402.24H429.424V420H427.744V417.072C427.344 417.984 426.688 418.736 425.776 419.328C424.864 419.904 423.792 420.192 422.56 420.192C421.36 420.192 420.28 419.912 419.32 419.352C418.376 418.792 417.632 418 417.088 416.976C416.56 415.952 416.296 414.768 416.296 413.424ZM427.744 413.448C427.744 412.392 427.528 411.464 427.096 410.664C426.664 409.864 426.072 409.248 425.32 408.816C424.584 408.384 423.768 408.168 422.872 408.168C421.944 408.168 421.112 408.376 420.376 408.792C419.64 409.208 419.056 409.816 418.624 410.616C418.208 411.4 418 412.336 418 413.424C418 414.496 418.208 415.44 418.624 416.256C419.056 417.056 419.64 417.672 420.376 418.104C421.112 418.52 421.944 418.728 422.872 418.728C423.768 418.728 424.584 418.512 425.32 418.08C426.072 417.648 426.664 417.032 427.096 416.232C427.528 415.432 427.744 414.504 427.744 413.448ZM445.836 412.776C445.836 413.352 445.82 413.792 445.788 414.096H434.916C434.964 415.088 435.204 415.936 435.636 416.64C436.068 417.344 436.636 417.88 437.34 418.248C438.044 418.6 438.812 418.776 439.644 418.776C440.732 418.776 441.644 418.512 442.38 417.984C443.132 417.456 443.628 416.744 443.868 415.848H445.644C445.324 417.128 444.636 418.176 443.58 418.992C442.54 419.792 441.228 420.192 439.644 420.192C438.412 420.192 437.308 419.92 436.332 419.376C435.356 418.816 434.588 418.032 434.028 417.024C433.484 416 433.212 414.808 433.212 413.448C433.212 412.088 433.484 410.896 434.028 409.872C434.572 408.848 435.332 408.064 436.308 407.52C437.284 406.976 438.396 406.704 439.644 406.704C440.892 406.704 441.98 406.976 442.908 407.52C443.852 408.064 444.572 408.8 445.068 409.728C445.58 410.64 445.836 411.656 445.836 412.776ZM444.132 412.728C444.148 411.752 443.948 410.92 443.532 410.232C443.132 409.544 442.58 409.024 441.876 408.672C441.172 408.32 440.404 408.144 439.572 408.144C438.324 408.144 437.26 408.544 436.38 409.344C435.5 410.144 435.012 411.272 434.916 412.728H444.132ZM451.285 409.776C451.701 408.896 452.357 408.168 453.253 407.592C454.165 407 455.245 406.704 456.493 406.704C457.677 406.704 458.741 406.984 459.685 407.544C460.645 408.088 461.389 408.872 461.917 409.896C462.461 410.904 462.733 412.08 462.733 413.424C462.733 414.768 462.461 415.952 461.917 416.976C461.389 418 460.645 418.792 459.685 419.352C458.741 419.912 457.677 420.192 456.493 420.192C455.261 420.192 454.189 419.904 453.277 419.328C452.365 418.736 451.701 418 451.285 417.12V426.192H449.629V406.896H451.285V409.776ZM461.029 413.424C461.029 412.336 460.813 411.4 460.381 410.616C459.965 409.816 459.389 409.208 458.653 408.792C457.917 408.376 457.085 408.168 456.157 408.168C455.261 408.168 454.437 408.384 453.685 408.816C452.949 409.248 452.365 409.864 451.933 410.664C451.501 411.464 451.285 412.392 451.285 413.448C451.285 414.504 451.501 415.432 451.933 416.232C452.365 417.032 452.949 417.648 453.685 418.08C454.437 418.512 455.261 418.728 456.157 418.728C457.085 418.728 457.917 418.52 458.653 418.104C459.389 417.672 459.965 417.056 460.381 416.256C460.813 415.44 461.029 414.496 461.029 413.424ZM468.225 409.224C468.593 408.408 469.153 407.776 469.905 407.328C470.673 406.88 471.609 406.656 472.713 406.656V408.408H472.257C471.041 408.408 470.065 408.736 469.329 409.392C468.593 410.048 468.225 411.144 468.225 412.68V420H466.545V406.896H468.225V409.224ZM487.816 412.776C487.816 413.352 487.8 413.792 487.768 414.096H476.896C476.944 415.088 477.184 415.936 477.616 416.64C478.048 417.344 478.616 417.88 479.32 418.248C480.024 418.6 480.792 418.776 481.624 418.776C482.712 418.776 483.624 418.512 484.36 417.984C485.112 417.456 485.608 416.744 485.848 415.848H487.624C487.304 417.128 486.616 418.176 485.56 418.992C484.52 419.792 483.208 420.192 481.624 420.192C480.392 420.192 479.288 419.92 478.312 419.376C477.336 418.816 476.568 418.032 476.008 417.024C475.464 416 475.192 414.808 475.192 413.448C475.192 412.088 475.464 410.896 476.008 409.872C476.552 408.848 477.312 408.064 478.288 407.52C479.264 406.976 480.376 406.704 481.624 406.704C482.872 406.704 483.96 406.976 484.888 407.52C485.832 408.064 486.552 408.8 487.048 409.728C487.56 410.64 487.816 411.656 487.816 412.776ZM486.112 412.728C486.128 411.752 485.928 410.92 485.512 410.232C485.112 409.544 484.56 409.024 483.856 408.672C483.152 408.32 482.384 408.144 481.552 408.144C480.304 408.144 479.24 408.544 478.36 409.344C477.48 410.144 476.992 411.272 476.896 412.728H486.112ZM496.122 420.192C494.618 420.192 493.386 419.848 492.426 419.16C491.482 418.456 490.954 417.504 490.842 416.304H492.57C492.65 417.04 492.994 417.64 493.602 418.104C494.226 418.552 495.058 418.776 496.098 418.776C497.01 418.776 497.722 418.56 498.234 418.128C498.762 417.696 499.026 417.16 499.026 416.52C499.026 416.072 498.882 415.704 498.594 415.416C498.306 415.128 497.938 414.904 497.49 414.744C497.058 414.568 496.466 414.384 495.714 414.192C494.738 413.936 493.946 413.68 493.338 413.424C492.73 413.168 492.21 412.792 491.778 412.296C491.362 411.784 491.154 411.104 491.154 410.256C491.154 409.616 491.346 409.024 491.73 408.48C492.114 407.936 492.658 407.504 493.362 407.184C494.066 406.864 494.866 406.704 495.762 406.704C497.17 406.704 498.306 407.064 499.17 407.784C500.034 408.488 500.498 409.464 500.562 410.712H498.882C498.834 409.944 498.53 409.328 497.97 408.864C497.426 408.384 496.674 408.144 495.714 408.144C494.866 408.144 494.178 408.344 493.65 408.744C493.122 409.144 492.858 409.64 492.858 410.232C492.858 410.744 493.01 411.168 493.314 411.504C493.634 411.824 494.026 412.08 494.49 412.272C494.954 412.448 495.578 412.648 496.362 412.872C497.306 413.128 498.058 413.376 498.618 413.616C499.178 413.856 499.658 414.208 500.058 414.672C500.458 415.136 500.666 415.752 500.682 416.52C500.682 417.224 500.49 417.856 500.106 418.416C499.722 418.96 499.186 419.392 498.498 419.712C497.81 420.032 497.018 420.192 496.122 420.192ZM509.076 420.192C507.572 420.192 506.34 419.848 505.38 419.16C504.436 418.456 503.908 417.504 503.796 416.304H505.524C505.604 417.04 505.948 417.64 506.556 418.104C507.18 418.552 508.012 418.776 509.052 418.776C509.964 418.776 510.676 418.56 511.188 418.128C511.716 417.696 511.98 417.16 511.98 416.52C511.98 416.072 511.836 415.704 511.548 415.416C511.26 415.128 510.892 414.904 510.444 414.744C510.012 414.568 509.42 414.384 508.668 414.192C507.692 413.936 506.9 413.68 506.292 413.424C505.684 413.168 505.164 412.792 504.732 412.296C504.316 411.784 504.108 411.104 504.108 410.256C504.108 409.616 504.3 409.024 504.684 408.48C505.068 407.936 505.612 407.504 506.316 407.184C507.02 406.864 507.82 406.704 508.716 406.704C510.124 406.704 511.26 407.064 512.124 407.784C512.988 408.488 513.452 409.464 513.516 410.712H511.836C511.788 409.944 511.484 409.328 510.924 408.864C510.38 408.384 509.628 408.144 508.668 408.144C507.82 408.144 507.132 408.344 506.604 408.744C506.076 409.144 505.812 409.64 505.812 410.232C505.812 410.744 505.964 411.168 506.268 411.504C506.588 411.824 506.98 412.08 507.444 412.272C507.908 412.448 508.532 412.648 509.316 412.872C510.26 413.128 511.012 413.376 511.572 413.616C512.132 413.856 512.612 414.208 513.012 414.672C513.412 415.136 513.62 415.752 513.636 416.52C513.636 417.224 513.444 417.856 513.06 418.416C512.676 418.96 512.14 419.392 511.452 419.712C510.764 420.032 509.972 420.192 509.076 420.192ZM518.358 404.424C518.022 404.424 517.734 404.304 517.494 404.064C517.254 403.824 517.134 403.528 517.134 403.176C517.134 402.824 517.254 402.536 517.494 402.312C517.734 402.072 518.022 401.952 518.358 401.952C518.694 401.952 518.982 402.072 519.222 402.312C519.462 402.536 519.582 402.824 519.582 403.176C519.582 403.528 519.462 403.824 519.222 404.064C518.982 404.304 518.694 404.424 518.358 404.424ZM519.198 406.896V420H517.518V406.896H519.198ZM528.379 418.368L532.795 406.896H534.571L529.315 420H527.419L522.163 406.896H523.963L528.379 418.368ZM549.424 412.776C549.424 413.352 549.408 413.792 549.376 414.096H538.504C538.552 415.088 538.792 415.936 539.224 416.64C539.656 417.344 540.224 417.88 540.928 418.248C541.632 418.6 542.4 418.776 543.232 418.776C544.32 418.776 545.232 418.512 545.968 417.984C546.72 417.456 547.216 416.744 547.456 415.848H549.232C548.912 417.128 548.224 418.176 547.168 418.992C546.128 419.792 544.816 420.192 543.232 420.192C542 420.192 540.896 419.92 539.92 419.376C538.944 418.816 538.176 418.032 537.616 417.024C537.072 416 536.8 414.808 536.8 413.448C536.8 412.088 537.072 410.896 537.616 409.872C538.16 408.848 538.92 408.064 539.896 407.52C540.872 406.976 541.984 406.704 543.232 406.704C544.48 406.704 545.568 406.976 546.496 407.52C547.44 408.064 548.16 408.8 548.656 409.728C549.168 410.64 549.424 411.656 549.424 412.776ZM547.72 412.728C547.736 411.752 547.536 410.92 547.12 410.232C546.72 409.544 546.168 409.024 545.464 408.672C544.76 408.32 543.992 408.144 543.16 408.144C541.912 408.144 540.848 408.544 539.968 409.344C539.088 410.144 538.6 411.272 538.504 412.728H547.72ZM565.035 420.192C563.531 420.192 562.299 419.848 561.339 419.16C560.395 418.456 559.867 417.504 559.755 416.304H561.483C561.563 417.04 561.907 417.64 562.515 418.104C563.139 418.552 563.971 418.776 565.011 418.776C565.923 418.776 566.635 418.56 567.147 418.128C567.675 417.696 567.939 417.16 567.939 416.52C567.939 416.072 567.795 415.704 567.507 415.416C567.219 415.128 566.851 414.904 566.403 414.744C565.971 414.568 565.379 414.384 564.627 414.192C563.651 413.936 562.859 413.68 562.251 413.424C561.643 413.168 561.123 412.792 560.691 412.296C560.275 411.784 560.067 411.104 560.067 410.256C560.067 409.616 560.259 409.024 560.643 408.48C561.027 407.936 561.571 407.504 562.275 407.184C562.979 406.864 563.779 406.704 564.675 406.704C566.083 406.704 567.219 407.064 568.083 407.784C568.947 408.488 569.411 409.464 569.475 410.712H567.795C567.747 409.944 567.443 409.328 566.883 408.864C566.339 408.384 565.587 408.144 564.627 408.144C563.779 408.144 563.091 408.344 562.563 408.744C562.035 409.144 561.771 409.64 561.771 410.232C561.771 410.744 561.923 411.168 562.227 411.504C562.547 411.824 562.939 412.08 563.403 412.272C563.867 412.448 564.491 412.648 565.275 412.872C566.219 413.128 566.971 413.376 567.531 413.616C568.091 413.856 568.571 414.208 568.971 414.672C569.371 415.136 569.579 415.752 569.595 416.52C569.595 417.224 569.403 417.856 569.019 418.416C568.635 418.96 568.099 419.392 567.411 419.712C566.723 420.032 565.931 420.192 565.035 420.192ZM584.278 406.896L576.502 426.168H574.75L577.294 419.928L571.918 406.896H573.766L578.23 418.08L582.55 406.896H584.278ZM602.876 406.656C604.412 406.656 605.66 407.144 606.62 408.12C607.596 409.08 608.084 410.48 608.084 412.32V420H606.428V412.512C606.428 411.088 606.084 410 605.396 409.248C604.708 408.496 603.772 408.12 602.588 408.12C601.356 408.12 600.372 408.528 599.636 409.344C598.9 410.16 598.532 411.344 598.532 412.896V420H596.876V412.512C596.876 411.088 596.532 410 595.844 409.248C595.156 408.496 594.212 408.12 593.012 408.12C591.78 408.12 590.796 408.528 590.06 409.344C589.324 410.16 588.956 411.344 588.956 412.896V420H587.276V406.896H588.956V409.152C589.372 408.336 589.964 407.72 590.732 407.304C591.5 406.872 592.356 406.656 593.3 406.656C594.436 406.656 595.428 406.928 596.276 407.472C597.14 408.016 597.764 408.816 598.148 409.872C598.5 408.832 599.1 408.04 599.948 407.496C600.812 406.936 601.788 406.656 602.876 406.656ZM614.191 409.776C614.607 408.896 615.263 408.168 616.159 407.592C617.071 407 618.151 406.704 619.399 406.704C620.583 406.704 621.647 406.984 622.591 407.544C623.551 408.088 624.295 408.872 624.823 409.896C625.367 410.904 625.639 412.08 625.639 413.424C625.639 414.768 625.367 415.952 624.823 416.976C624.295 418 623.551 418.792 622.591 419.352C621.647 419.912 620.583 420.192 619.399 420.192C618.167 420.192 617.095 419.904 616.183 419.328C615.271 418.736 614.607 418 614.191 417.12V426.192H612.535V406.896H614.191V409.776ZM623.935 413.424C623.935 412.336 623.719 411.4 623.287 410.616C622.871 409.816 622.295 409.208 621.559 408.792C620.823 408.376 619.991 408.168 619.063 408.168C618.167 408.168 617.343 408.384 616.591 408.816C615.855 409.248 615.271 409.864 614.839 410.664C614.407 411.464 614.191 412.392 614.191 413.448C614.191 414.504 614.407 415.432 614.839 416.232C615.271 417.032 615.855 417.648 616.591 418.08C617.343 418.512 618.167 418.728 619.063 418.728C619.991 418.728 620.823 418.52 621.559 418.104C622.295 417.672 622.871 417.056 623.287 416.256C623.719 415.44 623.935 414.496 623.935 413.424ZM631.634 408.312V416.448C631.634 417.248 631.786 417.8 632.09 418.104C632.394 418.408 632.93 418.56 633.698 418.56H635.234V420H633.434C632.25 420 631.37 419.728 630.794 419.184C630.218 418.624 629.93 417.712 629.93 416.448V408.312H628.106V406.896H629.93V403.608H631.634V406.896H635.234V408.312H631.634ZM644.461 420.192C643.229 420.192 642.117 419.92 641.125 419.376C640.149 418.816 639.373 418.032 638.797 417.024C638.237 416 637.957 414.808 637.957 413.448C637.957 412.088 638.245 410.904 638.821 409.896C639.397 408.872 640.181 408.088 641.173 407.544C642.165 406.984 643.277 406.704 644.509 406.704C645.741 406.704 646.853 406.984 647.845 407.544C648.853 408.088 649.637 408.872 650.197 409.896C650.773 410.904 651.061 412.088 651.061 413.448C651.061 414.792 650.773 415.976 650.197 417C649.621 418.024 648.829 418.816 647.821 419.376C646.813 419.92 645.693 420.192 644.461 420.192ZM644.461 418.728C645.325 418.728 646.125 418.536 646.861 418.152C647.597 417.752 648.189 417.16 648.637 416.376C649.101 415.576 649.333 414.6 649.333 413.448C649.333 412.296 649.109 411.328 648.661 410.544C648.213 409.744 647.621 409.152 646.885 408.768C646.149 408.368 645.349 408.168 644.485 408.168C643.621 408.168 642.821 408.368 642.085 408.768C641.349 409.152 640.757 409.744 640.309 410.544C639.877 411.328 639.661 412.296 639.661 413.448C639.661 414.6 639.877 415.576 640.309 416.376C640.757 417.16 641.341 417.752 642.061 418.152C642.797 418.536 643.597 418.728 644.461 418.728ZM670.443 406.656C671.979 406.656 673.227 407.144 674.187 408.12C675.163 409.08 675.651 410.48 675.651 412.32V420H673.995V412.512C673.995 411.088 673.651 410 672.963 409.248C672.275 408.496 671.339 408.12 670.155 408.12C668.923 408.12 667.939 408.528 667.203 409.344C666.467 410.16 666.099 411.344 666.099 412.896V420H664.443V412.512C664.443 411.088 664.099 410 663.411 409.248C662.723 408.496 661.779 408.12 660.579 408.12C659.347 408.12 658.363 408.528 657.627 409.344C656.891 410.16 656.523 411.344 656.523 412.896V420H654.843V406.896H656.523V409.152C656.939 408.336 657.531 407.72 658.299 407.304C659.067 406.872 659.923 406.656 660.867 406.656C662.003 406.656 662.995 406.928 663.843 407.472C664.707 408.016 665.331 408.816 665.715 409.872C666.067 408.832 666.667 408.04 667.515 407.496C668.379 406.936 669.355 406.656 670.443 406.656ZM679.334 413.424C679.334 412.08 679.598 410.904 680.126 409.896C680.67 408.872 681.414 408.088 682.358 407.544C683.318 406.984 684.398 406.704 685.598 406.704C686.846 406.704 687.918 406.992 688.814 407.568C689.726 408.144 690.382 408.88 690.782 409.776V406.896H692.462V420H690.782V417.096C690.366 417.992 689.702 418.736 688.79 419.328C687.894 419.904 686.822 420.192 685.574 420.192C684.39 420.192 683.318 419.912 682.358 419.352C681.414 418.792 680.67 418 680.126 416.976C679.598 415.952 679.334 414.768 679.334 413.424ZM690.782 413.448C690.782 412.392 690.566 411.464 690.134 410.664C689.702 409.864 689.11 409.248 688.358 408.816C687.622 408.384 686.806 408.168 685.91 408.168C684.982 408.168 684.15 408.376 683.414 408.792C682.678 409.208 682.094 409.816 681.662 410.616C681.246 411.4 681.038 412.336 681.038 413.424C681.038 414.496 681.246 415.44 681.662 416.256C682.094 417.056 682.678 417.672 683.414 418.104C684.15 418.52 684.982 418.728 685.91 418.728C686.806 418.728 687.622 418.512 688.358 418.08C689.11 417.648 689.702 417.032 690.134 416.232C690.566 415.432 690.782 414.504 690.782 413.448ZM699.202 408.312V416.448C699.202 417.248 699.354 417.8 699.658 418.104C699.962 418.408 700.498 418.56 701.266 418.56H702.802V420H701.002C699.818 420 698.938 419.728 698.362 419.184C697.786 418.624 697.498 417.712 697.498 416.448V408.312H695.674V406.896H697.498V403.608H699.202V406.896H702.802V408.312H699.202ZM712.028 420.192C710.796 420.192 709.684 419.92 708.692 419.376C707.716 418.816 706.94 418.032 706.364 417.024C705.804 416 705.524 414.808 705.524 413.448C705.524 412.088 705.812 410.904 706.388 409.896C706.964 408.872 707.748 408.088 708.74 407.544C709.732 406.984 710.844 406.704 712.076 406.704C713.308 406.704 714.42 406.984 715.412 407.544C716.42 408.088 717.204 408.872 717.764 409.896C718.34 410.904 718.628 412.088 718.628 413.448C718.628 414.792 718.34 415.976 717.764 417C717.188 418.024 716.396 418.816 715.388 419.376C714.38 419.92 713.26 420.192 712.028 420.192ZM712.028 418.728C712.892 418.728 713.692 418.536 714.428 418.152C715.164 417.752 715.756 417.16 716.204 416.376C716.668 415.576 716.9 414.6 716.9 413.448C716.9 412.296 716.676 411.328 716.228 410.544C715.78 409.744 715.188 409.152 714.452 408.768C713.716 408.368 712.916 408.168 712.052 408.168C711.188 408.168 710.388 408.368 709.652 408.768C708.916 409.152 708.324 409.744 707.876 410.544C707.444 411.328 707.228 412.296 707.228 413.448C707.228 414.6 707.444 415.576 707.876 416.376C708.324 417.16 708.908 417.752 709.628 418.152C710.364 418.536 711.164 418.728 712.028 418.728ZM724.091 402.24V420H722.411V402.24H724.091ZM734.351 420.192C733.119 420.192 732.007 419.92 731.015 419.376C730.039 418.816 729.263 418.032 728.687 417.024C728.127 416 727.847 414.808 727.847 413.448C727.847 412.088 728.135 410.904 728.711 409.896C729.287 408.872 730.071 408.088 731.063 407.544C732.055 406.984 733.167 406.704 734.399 406.704C735.631 406.704 736.743 406.984 737.735 407.544C738.743 408.088 739.527 408.872 740.087 409.896C740.663 410.904 740.951 412.088 740.951 413.448C740.951 414.792 740.663 415.976 740.087 417C739.511 418.024 738.719 418.816 737.711 419.376C736.703 419.92 735.583 420.192 734.351 420.192ZM734.351 418.728C735.215 418.728 736.015 418.536 736.751 418.152C737.487 417.752 738.079 417.16 738.527 416.376C738.991 415.576 739.223 414.6 739.223 413.448C739.223 412.296 738.999 411.328 738.551 410.544C738.103 409.744 737.511 409.152 736.775 408.768C736.039 408.368 735.239 408.168 734.375 408.168C733.511 408.168 732.711 408.368 731.975 408.768C731.239 409.152 730.647 409.744 730.199 410.544C729.767 411.328 729.551 412.296 729.551 413.448C729.551 414.6 729.767 415.576 730.199 416.376C730.647 417.16 731.231 417.752 731.951 418.152C732.687 418.536 733.487 418.728 734.351 418.728ZM750.23 406.704C751.462 406.704 752.534 406.992 753.446 407.568C754.358 408.144 755.014 408.872 755.414 409.752V406.896H757.094V420.336C757.094 421.536 756.83 422.6 756.302 423.528C755.79 424.456 755.07 425.168 754.142 425.664C753.214 426.176 752.158 426.432 750.974 426.432C749.294 426.432 747.894 426.032 746.774 425.232C745.67 424.432 744.982 423.344 744.71 421.968H746.366C746.654 422.88 747.198 423.608 747.998 424.152C748.814 424.696 749.806 424.968 750.974 424.968C751.822 424.968 752.582 424.784 753.254 424.416C753.926 424.064 754.454 423.536 754.838 422.832C755.222 422.128 755.414 421.296 755.414 420.336V417.096C754.998 417.992 754.334 418.736 753.422 419.328C752.526 419.904 751.462 420.192 750.23 420.192C749.03 420.192 747.95 419.912 746.99 419.352C746.046 418.792 745.302 418 744.758 416.976C744.23 415.952 743.966 414.768 743.966 413.424C743.966 412.08 744.23 410.904 744.758 409.896C745.302 408.872 746.046 408.088 746.99 407.544C747.95 406.984 749.03 406.704 750.23 406.704ZM755.414 413.448C755.414 412.392 755.198 411.464 754.766 410.664C754.334 409.864 753.742 409.248 752.99 408.816C752.254 408.384 751.438 408.168 750.542 408.168C749.614 408.168 748.782 408.376 748.046 408.792C747.31 409.208 746.726 409.816 746.294 410.616C745.878 411.4 745.67 412.336 745.67 413.424C745.67 414.496 745.878 415.44 746.294 416.256C746.726 417.056 747.31 417.672 748.046 418.104C748.782 418.52 749.614 418.728 750.542 418.728C751.438 418.728 752.254 418.512 752.99 418.08C753.742 417.648 754.334 417.032 754.766 416.232C755.198 415.432 755.414 414.504 755.414 413.448ZM772.449 406.896L764.673 426.168H762.921L765.465 419.928L760.089 406.896H761.937L766.401 418.08L770.721 406.896H772.449ZM783.593 404.424C783.257 404.424 782.969 404.304 782.729 404.064C782.489 403.824 782.369 403.528 782.369 403.176C782.369 402.824 782.489 402.536 782.729 402.312C782.969 402.072 783.257 401.952 783.593 401.952C783.929 401.952 784.217 402.072 784.457 402.312C784.697 402.536 784.817 402.824 784.817 403.176C784.817 403.528 784.697 403.824 784.457 404.064C784.217 404.304 783.929 404.424 783.593 404.424ZM784.433 406.896V420H782.753V406.896H784.433ZM795.102 406.656C796.67 406.656 797.95 407.144 798.942 408.12C799.934 409.08 800.43 410.48 800.43 412.32V420H798.774V412.512C798.774 411.088 798.414 410 797.694 409.248C796.99 408.496 796.022 408.12 794.79 408.12C793.526 408.12 792.518 408.52 791.766 409.32C791.014 410.12 790.638 411.296 790.638 412.848V420H788.958V406.896H790.638V409.128C791.054 408.328 791.654 407.72 792.438 407.304C793.222 406.872 794.11 406.656 795.102 406.656ZM811.403 413.448C811.403 412.088 811.675 410.904 812.219 409.896C812.763 408.872 813.515 408.088 814.475 407.544C815.435 406.984 816.531 406.704 817.763 406.704C819.379 406.704 820.707 407.104 821.747 407.904C822.803 408.704 823.483 409.792 823.787 411.168H821.987C821.763 410.224 821.275 409.488 820.523 408.96C819.787 408.416 818.867 408.144 817.763 408.144C816.883 408.144 816.091 408.344 815.387 408.744C814.683 409.144 814.123 409.744 813.707 410.544C813.307 411.328 813.107 412.296 813.107 413.448C813.107 414.6 813.307 415.576 813.707 416.376C814.123 417.176 814.683 417.776 815.387 418.176C816.091 418.576 816.883 418.776 817.763 418.776C818.867 418.776 819.787 418.512 820.523 417.984C821.275 417.44 821.763 416.688 821.987 415.728H823.787C823.483 417.072 822.803 418.152 821.747 418.968C820.691 419.784 819.363 420.192 817.763 420.192C816.531 420.192 815.435 419.92 814.475 419.376C813.515 418.816 812.763 418.032 812.219 417.024C811.675 416 811.403 414.808 811.403 413.448ZM833.346 420.192C832.114 420.192 831.002 419.92 830.01 419.376C829.034 418.816 828.258 418.032 827.682 417.024C827.122 416 826.842 414.808 826.842 413.448C826.842 412.088 827.13 410.904 827.706 409.896C828.282 408.872 829.066 408.088 830.058 407.544C831.05 406.984 832.162 406.704 833.394 406.704C834.626 406.704 835.738 406.984 836.73 407.544C837.738 408.088 838.522 408.872 839.082 409.896C839.658 410.904 839.946 412.088 839.946 413.448C839.946 414.792 839.658 415.976 839.082 417C838.506 418.024 837.714 418.816 836.706 419.376C835.698 419.92 834.578 420.192 833.346 420.192ZM833.346 418.728C834.21 418.728 835.01 418.536 835.746 418.152C836.482 417.752 837.074 417.16 837.522 416.376C837.986 415.576 838.218 414.6 838.218 413.448C838.218 412.296 837.994 411.328 837.546 410.544C837.098 409.744 836.506 409.152 835.77 408.768C835.034 408.368 834.234 408.168 833.37 408.168C832.506 408.168 831.706 408.368 830.97 408.768C830.234 409.152 829.642 409.744 829.194 410.544C828.762 411.328 828.546 412.296 828.546 413.448C828.546 414.6 828.762 415.576 829.194 416.376C829.642 417.16 830.226 417.752 830.946 418.152C831.682 418.536 832.482 418.728 833.346 418.728ZM845.408 402.24V420H843.728V402.24H845.408ZM851.613 402.24V420H849.933V402.24H851.613ZM867.993 412.776C867.993 413.352 867.977 413.792 867.945 414.096H857.073C857.121 415.088 857.361 415.936 857.793 416.64C858.225 417.344 858.793 417.88 859.497 418.248C860.201 418.6 860.969 418.776 861.801 418.776C862.889 418.776 863.801 418.512 864.537 417.984C865.289 417.456 865.785 416.744 866.025 415.848H867.801C867.481 417.128 866.793 418.176 865.737 418.992C864.697 419.792 863.385 420.192 861.801 420.192C860.569 420.192 859.465 419.92 858.489 419.376C857.513 418.816 856.745 418.032 856.185 417.024C855.641 416 855.369 414.808 855.369 413.448C855.369 412.088 855.641 410.896 856.185 409.872C856.729 408.848 857.489 408.064 858.465 407.52C859.441 406.976 860.553 406.704 861.801 406.704C863.049 406.704 864.137 406.976 865.065 407.52C866.009 408.064 866.729 408.8 867.225 409.728C867.737 410.64 867.993 411.656 867.993 412.776ZM866.289 412.728C866.305 411.752 866.105 410.92 865.689 410.232C865.289 409.544 864.737 409.024 864.033 408.672C863.329 408.32 862.561 408.144 861.729 408.144C860.481 408.144 859.417 408.544 858.537 409.344C857.657 410.144 857.169 411.272 857.073 412.728H866.289ZM877.283 406.704C878.515 406.704 879.587 406.992 880.499 407.568C881.411 408.144 882.067 408.872 882.467 409.752V406.896H884.147V420.336C884.147 421.536 883.883 422.6 883.355 423.528C882.843 424.456 882.123 425.168 881.195 425.664C880.267 426.176 879.211 426.432 878.027 426.432C876.347 426.432 874.947 426.032 873.827 425.232C872.723 424.432 872.035 423.344 871.763 421.968H873.419C873.707 422.88 874.251 423.608 875.051 424.152C875.867 424.696 876.859 424.968 878.027 424.968C878.875 424.968 879.635 424.784 880.307 424.416C880.979 424.064 881.507 423.536 881.891 422.832C882.275 422.128 882.467 421.296 882.467 420.336V417.096C882.051 417.992 881.387 418.736 880.475 419.328C879.579 419.904 878.515 420.192 877.283 420.192C876.083 420.192 875.003 419.912 874.043 419.352C873.099 418.792 872.355 418 871.811 416.976C871.283 415.952 871.019 414.768 871.019 413.424C871.019 412.08 871.283 410.904 871.811 409.896C872.355 408.872 873.099 408.088 874.043 407.544C875.003 406.984 876.083 406.704 877.283 406.704ZM882.467 413.448C882.467 412.392 882.251 411.464 881.819 410.664C881.387 409.864 880.795 409.248 880.043 408.816C879.307 408.384 878.491 408.168 877.595 408.168C876.667 408.168 875.835 408.376 875.099 408.792C874.363 409.208 873.779 409.816 873.347 410.616C872.931 411.4 872.723 412.336 872.723 413.424C872.723 414.496 872.931 415.44 873.347 416.256C873.779 417.056 874.363 417.672 875.099 418.104C875.835 418.52 876.667 418.728 877.595 418.728C878.491 418.728 879.307 418.512 880.043 418.08C880.795 417.648 881.387 417.032 881.819 416.232C882.251 415.432 882.467 414.504 882.467 413.448ZM900.558 412.776C900.558 413.352 900.542 413.792 900.51 414.096H889.638C889.686 415.088 889.926 415.936 890.358 416.64C890.79 417.344 891.358 417.88 892.062 418.248C892.766 418.6 893.534 418.776 894.366 418.776C895.454 418.776 896.366 418.512 897.102 417.984C897.854 417.456 898.35 416.744 898.59 415.848H900.366C900.046 417.128 899.358 418.176 898.302 418.992C897.262 419.792 895.95 420.192 894.366 420.192C893.134 420.192 892.03 419.92 891.054 419.376C890.078 418.816 889.31 418.032 888.75 417.024C888.206 416 887.934 414.808 887.934 413.448C887.934 412.088 888.206 410.896 888.75 409.872C889.294 408.848 890.054 408.064 891.03 407.52C892.006 406.976 893.118 406.704 894.366 406.704C895.614 406.704 896.702 406.976 897.63 407.52C898.574 408.064 899.294 408.8 899.79 409.728C900.302 410.64 900.558 411.656 900.558 412.776ZM898.854 412.728C898.87 411.752 898.67 410.92 898.254 410.232C897.854 409.544 897.302 409.024 896.598 408.672C895.894 408.32 895.126 408.144 894.294 408.144C893.046 408.144 891.982 408.544 891.102 409.344C890.222 410.144 889.734 411.272 889.638 412.728H898.854ZM916.17 420.192C914.666 420.192 913.434 419.848 912.474 419.16C911.53 418.456 911.002 417.504 910.89 416.304H912.618C912.698 417.04 913.042 417.64 913.65 418.104C914.274 418.552 915.106 418.776 916.146 418.776C917.058 418.776 917.77 418.56 918.282 418.128C918.81 417.696 919.074 417.16 919.074 416.52C919.074 416.072 918.93 415.704 918.642 415.416C918.354 415.128 917.986 414.904 917.538 414.744C917.106 414.568 916.514 414.384 915.762 414.192C914.786 413.936 913.994 413.68 913.386 413.424C912.778 413.168 912.258 412.792 911.826 412.296C911.41 411.784 911.202 411.104 911.202 410.256C911.202 409.616 911.394 409.024 911.778 408.48C912.162 407.936 912.706 407.504 913.41 407.184C914.114 406.864 914.914 406.704 915.81 406.704C917.218 406.704 918.354 407.064 919.218 407.784C920.082 408.488 920.546 409.464 920.61 410.712H918.93C918.882 409.944 918.578 409.328 918.018 408.864C917.474 408.384 916.722 408.144 915.762 408.144C914.914 408.144 914.226 408.344 913.698 408.744C913.17 409.144 912.906 409.64 912.906 410.232C912.906 410.744 913.058 411.168 913.362 411.504C913.682 411.824 914.074 412.08 914.538 412.272C915.002 412.448 915.626 412.648 916.41 412.872C917.354 413.128 918.106 413.376 918.666 413.616C919.226 413.856 919.706 414.208 920.106 414.672C920.506 415.136 920.714 415.752 920.73 416.52C920.73 417.224 920.538 417.856 920.154 418.416C919.77 418.96 919.234 419.392 918.546 419.712C917.858 420.032 917.066 420.192 916.17 420.192ZM926.796 408.312V416.448C926.796 417.248 926.948 417.8 927.252 418.104C927.556 418.408 928.092 418.56 928.86 418.56H930.396V420H928.596C927.412 420 926.532 419.728 925.956 419.184C925.38 418.624 925.092 417.712 925.092 416.448V408.312H923.268V406.896H925.092V403.608H926.796V406.896H930.396V408.312H926.796ZM945.239 406.896V420H943.559V417.696C943.175 418.512 942.583 419.136 941.783 419.568C940.983 420 940.087 420.216 939.095 420.216C937.527 420.216 936.247 419.736 935.255 418.776C934.263 417.8 933.767 416.392 933.767 414.552V406.896H935.423V414.36C935.423 415.784 935.775 416.872 936.479 417.624C937.199 418.376 938.175 418.752 939.407 418.752C940.671 418.752 941.679 418.352 942.431 417.552C943.183 416.752 943.559 415.576 943.559 414.024V406.896H945.239ZM949.026 413.424C949.026 412.08 949.298 410.904 949.842 409.896C950.386 408.872 951.13 408.088 952.074 407.544C953.034 406.984 954.114 406.704 955.314 406.704C956.466 406.704 957.506 406.984 958.434 407.544C959.362 408.104 960.042 408.832 960.474 409.728V402.24H962.154V420H960.474V417.072C960.074 417.984 959.418 418.736 958.506 419.328C957.594 419.904 956.522 420.192 955.29 420.192C954.09 420.192 953.01 419.912 952.05 419.352C951.106 418.792 950.362 418 949.818 416.976C949.29 415.952 949.026 414.768 949.026 413.424ZM960.474 413.448C960.474 412.392 960.258 411.464 959.826 410.664C959.394 409.864 958.802 409.248 958.05 408.816C957.314 408.384 956.498 408.168 955.602 408.168C954.674 408.168 953.842 408.376 953.106 408.792C952.37 409.208 951.786 409.816 951.354 410.616C950.938 411.4 950.73 412.336 950.73 413.424C950.73 414.496 950.938 415.44 951.354 416.256C951.786 417.056 952.37 417.672 953.106 418.104C953.842 418.52 954.674 418.728 955.602 418.728C956.498 418.728 957.314 418.512 958.05 418.08C958.802 417.648 959.394 417.032 959.826 416.232C960.258 415.432 960.474 414.504 960.474 413.448ZM978.565 412.776C978.565 413.352 978.549 413.792 978.517 414.096H967.645C967.693 415.088 967.933 415.936 968.365 416.64C968.797 417.344 969.365 417.88 970.069 418.248C970.773 418.6 971.541 418.776 972.373 418.776C973.461 418.776 974.373 418.512 975.109 417.984C975.861 417.456 976.357 416.744 976.597 415.848H978.373C978.053 417.128 977.365 418.176 976.309 418.992C975.269 419.792 973.957 420.192 972.373 420.192C971.141 420.192 970.037 419.92 969.061 419.376C968.085 418.816 967.317 418.032 966.757 417.024C966.213 416 965.941 414.808 965.941 413.448C965.941 412.088 966.213 410.896 966.757 409.872C967.301 408.848 968.061 408.064 969.037 407.52C970.013 406.976 971.125 406.704 972.373 406.704C973.621 406.704 974.709 406.976 975.637 407.52C976.581 408.064 977.301 408.8 977.797 409.728C978.309 410.64 978.565 411.656 978.565 412.776ZM976.861 412.728C976.877 411.752 976.677 410.92 976.261 410.232C975.861 409.544 975.309 409.024 974.605 408.672C973.901 408.32 973.133 408.144 972.301 408.144C971.053 408.144 969.989 408.544 969.109 409.344C968.229 410.144 967.741 411.272 967.645 412.728H976.861ZM988.503 406.656C990.071 406.656 991.351 407.144 992.343 408.12C993.335 409.08 993.831 410.48 993.831 412.32V420H992.175V412.512C992.175 411.088 991.815 410 991.095 409.248C990.391 408.496 989.423 408.12 988.191 408.12C986.927 408.12 985.919 408.52 985.167 409.32C984.415 410.12 984.039 411.296 984.039 412.848V420H982.359V406.896H984.039V409.128C984.455 408.328 985.055 407.72 985.839 407.304C986.623 406.872 987.511 406.656 988.503 406.656ZM1000.45 408.312V416.448C1000.45 417.248 1000.6 417.8 1000.91 418.104C1001.21 418.408 1001.75 418.56 1002.51 418.56H1004.05V420H1002.25C1001.07 420 1000.19 419.728 999.611 419.184C999.035 418.624 998.747 417.712 998.747 416.448V408.312H996.923V406.896H998.747V403.608H1000.45V406.896H1004.05V408.312H1000.45ZM1012.05 420.192C1010.55 420.192 1009.32 419.848 1008.36 419.16C1007.41 418.456 1006.89 417.504 1006.77 416.304H1008.5C1008.58 417.04 1008.93 417.64 1009.53 418.104C1010.16 418.552 1010.99 418.776 1012.03 418.776C1012.94 418.776 1013.65 418.56 1014.17 418.128C1014.69 417.696 1014.96 417.16 1014.96 416.52C1014.96 416.072 1014.81 415.704 1014.53 415.416C1014.24 415.128 1013.87 414.904 1013.42 414.744C1012.99 414.568 1012.4 414.384 1011.65 414.192C1010.67 413.936 1009.88 413.68 1009.27 413.424C1008.66 413.168 1008.14 412.792 1007.71 412.296C1007.29 411.784 1007.09 411.104 1007.09 410.256C1007.09 409.616 1007.28 409.024 1007.66 408.48C1008.05 407.936 1008.59 407.504 1009.29 407.184C1010 406.864 1010.8 406.704 1011.69 406.704C1013.1 406.704 1014.24 407.064 1015.1 407.784C1015.97 408.488 1016.43 409.464 1016.49 410.712H1014.81C1014.77 409.944 1014.46 409.328 1013.9 408.864C1013.36 408.384 1012.61 408.144 1011.65 408.144C1010.8 408.144 1010.11 408.344 1009.58 408.744C1009.05 409.144 1008.79 409.64 1008.79 410.232C1008.79 410.744 1008.94 411.168 1009.25 411.504C1009.57 411.824 1009.96 412.08 1010.42 412.272C1010.89 412.448 1011.51 412.648 1012.29 412.872C1013.24 413.128 1013.99 413.376 1014.55 413.616C1015.11 413.856 1015.59 414.208 1015.99 414.672C1016.39 415.136 1016.6 415.752 1016.61 416.52C1016.61 417.224 1016.42 417.856 1016.04 418.416C1015.65 418.96 1015.12 419.392 1014.43 419.712C1013.74 420.032 1012.95 420.192 1012.05 420.192Z" fill="black"/>
</svg>
