<svg width="1440" height="285" viewBox="0 0 1440 285" fill="none" xmlns="http://www.w3.org/2000/svg">
<path d="M553.32 132.06V135.45H547.74V153H543.54V135.45H537.96V132.06H553.32ZM566.644 136.14C567.904 136.14 569.024 136.42 570.004 136.98C570.984 137.52 571.744 138.33 572.284 139.41C572.844 140.47 573.124 141.75 573.124 143.25V153H568.924V143.82C568.924 142.5 568.594 141.49 567.934 140.79C567.274 140.07 566.374 139.71 565.234 139.71C564.074 139.71 563.154 140.07 562.474 140.79C561.814 141.49 561.484 142.5 561.484 143.82V153H557.284V130.8H561.484V138.45C562.024 137.73 562.744 137.17 563.644 136.77C564.544 136.35 565.544 136.14 566.644 136.14ZM576.938 144.63C576.938 142.95 577.268 141.46 577.928 140.16C578.608 138.86 579.518 137.86 580.658 137.16C581.818 136.46 583.108 136.11 584.528 136.11C585.768 136.11 586.848 136.36 587.768 136.86C588.708 137.36 589.458 137.99 590.018 138.75V136.38H594.248V153H590.018V150.57C589.478 151.35 588.728 152 587.768 152.52C586.828 153.02 585.738 153.27 584.498 153.27C583.098 153.27 581.818 152.91 580.658 152.19C579.518 151.47 578.608 150.46 577.928 149.16C577.268 147.84 576.938 146.33 576.938 144.63ZM590.018 144.69C590.018 143.67 589.818 142.8 589.418 142.08C589.018 141.34 588.478 140.78 587.798 140.4C587.118 140 586.388 139.8 585.608 139.8C584.828 139.8 584.108 139.99 583.448 140.37C582.788 140.75 582.248 141.31 581.828 142.05C581.428 142.77 581.228 143.63 581.228 144.63C581.228 145.63 581.428 146.51 581.828 147.27C582.248 148.01 582.788 148.58 583.448 148.98C584.128 149.38 584.848 149.58 585.608 149.58C586.388 149.58 587.118 149.39 587.798 149.01C588.478 148.61 589.018 148.05 589.418 147.33C589.818 146.59 590.018 145.71 590.018 144.69ZM608.46 136.14C610.44 136.14 612.04 136.77 613.26 138.03C614.48 139.27 615.09 141.01 615.09 143.25V153H610.89V143.82C610.89 142.5 610.56 141.49 609.9 140.79C609.24 140.07 608.34 139.71 607.2 139.71C606.04 139.71 605.12 140.07 604.44 140.79C603.78 141.49 603.45 142.5 603.45 143.82V153H599.25V136.38H603.45V138.45C604.01 137.73 604.72 137.17 605.58 136.77C606.46 136.35 607.42 136.14 608.46 136.14ZM629.824 153L624.184 145.92V153H619.984V130.8H624.184V143.43L629.764 136.38H635.224L627.904 144.72L635.284 153H629.824ZM662.352 136.38L652.062 160.86H647.592L651.192 152.58L644.532 136.38H649.242L653.532 147.99L657.882 136.38H662.352ZM672.896 153.27C671.296 153.27 669.856 152.92 668.576 152.22C667.296 151.5 666.286 150.49 665.546 149.19C664.826 147.89 664.466 146.39 664.466 144.69C664.466 142.99 664.836 141.49 665.576 140.19C666.336 138.89 667.366 137.89 668.666 137.19C669.966 136.47 671.416 136.11 673.016 136.11C674.616 136.11 676.066 136.47 677.366 137.19C678.666 137.89 679.686 138.89 680.426 140.19C681.186 141.49 681.566 142.99 681.566 144.69C681.566 146.39 681.176 147.89 680.396 149.19C679.636 150.49 678.596 151.5 677.276 152.22C675.976 152.92 674.516 153.27 672.896 153.27ZM672.896 149.61C673.656 149.61 674.366 149.43 675.026 149.07C675.706 148.69 676.246 148.13 676.646 147.39C677.046 146.65 677.246 145.75 677.246 144.69C677.246 143.11 676.826 141.9 675.986 141.06C675.166 140.2 674.156 139.77 672.956 139.77C671.756 139.77 670.746 140.2 669.926 141.06C669.126 141.9 668.726 143.11 668.726 144.69C668.726 146.27 669.116 147.49 669.896 148.35C670.696 149.19 671.696 149.61 672.896 149.61ZM701.237 136.38V153H697.007V150.9C696.467 151.62 695.757 152.19 694.877 152.61C694.017 153.01 693.077 153.21 692.057 153.21C690.757 153.21 689.607 152.94 688.607 152.4C687.607 151.84 686.817 151.03 686.237 149.97C685.677 148.89 685.397 147.61 685.397 146.13V136.38H689.597V145.53C689.597 146.85 689.927 147.87 690.587 148.59C691.247 149.29 692.147 149.64 693.287 149.64C694.447 149.64 695.357 149.29 696.017 148.59C696.677 147.87 697.007 146.85 697.007 145.53V136.38H701.237ZM721.95 139.83H719.04V153H714.78V139.83H712.89V136.38H714.78V135.54C714.78 133.5 715.36 132 716.52 131.04C717.68 130.08 719.43 129.63 721.77 129.69V133.23C720.75 133.21 720.04 133.38 719.64 133.74C719.24 134.1 719.04 134.75 719.04 135.69V136.38H721.95V139.83ZM732.952 153.27C731.352 153.27 729.912 152.92 728.632 152.22C727.352 151.5 726.342 150.49 725.602 149.19C724.882 147.89 724.522 146.39 724.522 144.69C724.522 142.99 724.892 141.49 725.632 140.19C726.392 138.89 727.422 137.89 728.722 137.19C730.022 136.47 731.472 136.11 733.072 136.11C734.672 136.11 736.122 136.47 737.422 137.19C738.722 137.89 739.742 138.89 740.482 140.19C741.242 141.49 741.622 142.99 741.622 144.69C741.622 146.39 741.232 147.89 740.452 149.19C739.692 150.49 738.652 151.5 737.332 152.22C736.032 152.92 734.572 153.27 732.952 153.27ZM732.952 149.61C733.712 149.61 734.422 149.43 735.082 149.07C735.762 148.69 736.302 148.13 736.702 147.39C737.102 146.65 737.302 145.75 737.302 144.69C737.302 143.11 736.882 141.9 736.042 141.06C735.222 140.2 734.212 139.77 733.012 139.77C731.812 139.77 730.802 140.2 729.982 141.06C729.182 141.9 728.782 143.11 728.782 144.69C728.782 146.27 729.172 147.49 729.952 148.35C730.752 149.19 731.752 149.61 732.952 149.61ZM749.802 138.96C750.342 138.08 751.042 137.39 751.902 136.89C752.782 136.39 753.782 136.14 754.902 136.14V140.55H753.792C752.472 140.55 751.472 140.86 750.792 141.48C750.132 142.1 749.802 143.18 749.802 144.72V153H745.602V136.38H749.802V138.96ZM770.88 138.96C771.42 138.08 772.12 137.39 772.98 136.89C773.86 136.39 774.86 136.14 775.98 136.14V140.55H774.87C773.55 140.55 772.55 140.86 771.87 141.48C771.21 142.1 770.88 143.18 770.88 144.72V153H766.68V136.38H770.88V138.96ZM795.159 144.33C795.159 144.93 795.119 145.47 795.039 145.95H782.889C782.989 147.15 783.409 148.09 784.149 148.77C784.889 149.45 785.799 149.79 786.879 149.79C788.439 149.79 789.549 149.12 790.209 147.78H794.739C794.259 149.38 793.339 150.7 791.979 151.74C790.619 152.76 788.949 153.27 786.969 153.27C785.369 153.27 783.929 152.92 782.649 152.22C781.389 151.5 780.399 150.49 779.679 149.19C778.979 147.89 778.629 146.39 778.629 144.69C778.629 142.97 778.979 141.46 779.679 140.16C780.379 138.86 781.359 137.86 782.619 137.16C783.879 136.46 785.329 136.11 786.969 136.11C788.549 136.11 789.959 136.45 791.199 137.13C792.459 137.81 793.429 138.78 794.109 140.04C794.809 141.28 795.159 142.71 795.159 144.33ZM790.809 143.13C790.789 142.05 790.399 141.19 789.639 140.55C788.879 139.89 787.949 139.56 786.849 139.56C785.809 139.56 784.929 139.88 784.209 140.52C783.509 141.14 783.079 142.01 782.919 143.13H790.809ZM798.044 144.63C798.044 142.95 798.374 141.46 799.034 140.16C799.714 138.86 800.624 137.86 801.764 137.16C802.924 136.46 804.214 136.11 805.634 136.11C806.874 136.11 807.954 136.36 808.874 136.86C809.814 137.36 810.564 137.99 811.124 138.75V136.38H815.354V153H811.124V150.57C810.584 151.35 809.834 152 808.874 152.52C807.934 153.02 806.844 153.27 805.604 153.27C804.204 153.27 802.924 152.91 801.764 152.19C800.624 151.47 799.714 150.46 799.034 149.16C798.374 147.84 798.044 146.33 798.044 144.63ZM811.124 144.69C811.124 143.67 810.924 142.8 810.524 142.08C810.124 141.34 809.584 140.78 808.904 140.4C808.224 140 807.494 139.8 806.714 139.8C805.934 139.8 805.214 139.99 804.554 140.37C803.894 140.75 803.354 141.31 802.934 142.05C802.534 142.77 802.334 143.63 802.334 144.63C802.334 145.63 802.534 146.51 802.934 147.27C803.354 148.01 803.894 148.58 804.554 148.98C805.234 149.38 805.954 149.58 806.714 149.58C807.494 149.58 808.224 149.39 808.904 149.01C809.584 148.61 810.124 148.05 810.524 147.33C810.924 146.59 811.124 145.71 811.124 144.69ZM819.276 144.63C819.276 142.95 819.606 141.46 820.266 140.16C820.946 138.86 821.866 137.86 823.026 137.16C824.186 136.46 825.476 136.11 826.896 136.11C827.976 136.11 829.006 136.35 829.986 136.83C830.966 137.29 831.746 137.91 832.326 138.69V130.8H836.586V153H832.326V150.54C831.806 151.36 831.076 152.02 830.136 152.52C829.196 153.02 828.106 153.27 826.866 153.27C825.466 153.27 824.186 152.91 823.026 152.19C821.866 151.47 820.946 150.46 820.266 149.16C819.606 147.84 819.276 146.33 819.276 144.63ZM832.356 144.69C832.356 143.67 832.156 142.8 831.756 142.08C831.356 141.34 830.816 140.78 830.136 140.4C829.456 140 828.726 139.8 827.946 139.8C827.166 139.8 826.446 139.99 825.786 140.37C825.126 140.75 824.586 141.31 824.166 142.05C823.766 142.77 823.566 143.63 823.566 144.63C823.566 145.63 823.766 146.51 824.166 147.27C824.586 148.01 825.126 148.58 825.786 148.98C826.466 149.38 827.186 149.58 827.946 149.58C828.726 149.58 829.456 149.39 830.136 149.01C830.816 148.61 831.356 148.05 831.756 147.33C832.156 146.59 832.356 145.71 832.356 144.69ZM843.718 134.4C842.978 134.4 842.358 134.17 841.858 133.71C841.378 133.23 841.138 132.64 841.138 131.94C841.138 131.24 841.378 130.66 841.858 130.2C842.358 129.72 842.978 129.48 843.718 129.48C844.458 129.48 845.068 129.72 845.548 130.2C846.048 130.66 846.298 131.24 846.298 131.94C846.298 132.64 846.048 133.23 845.548 133.71C845.068 134.17 844.458 134.4 843.718 134.4ZM845.788 136.38V153H841.588V136.38H845.788ZM860.048 136.14C862.028 136.14 863.628 136.77 864.848 138.03C866.068 139.27 866.678 141.01 866.678 143.25V153H862.478V143.82C862.478 142.5 862.148 141.49 861.488 140.79C860.828 140.07 859.928 139.71 858.788 139.71C857.628 139.71 856.708 140.07 856.028 140.79C855.368 141.49 855.038 142.5 855.038 143.82V153H850.838V136.38H855.038V138.45C855.598 137.73 856.308 137.17 857.168 136.77C858.048 136.35 859.008 136.14 860.048 136.14ZM878.082 136.11C879.322 136.11 880.412 136.36 881.352 136.86C882.292 137.34 883.032 137.97 883.572 138.75V136.38H887.802V153.12C887.802 154.66 887.492 156.03 886.872 157.23C886.252 158.45 885.322 159.41 884.082 160.11C882.842 160.83 881.342 161.19 879.582 161.19C877.222 161.19 875.282 160.64 873.762 159.54C872.262 158.44 871.412 156.94 871.212 155.04H875.382C875.602 155.8 876.072 156.4 876.792 156.84C877.532 157.3 878.422 157.53 879.462 157.53C880.682 157.53 881.672 157.16 882.432 156.42C883.192 155.7 883.572 154.6 883.572 153.12V150.54C883.032 151.32 882.282 151.97 881.322 152.49C880.382 153.01 879.302 153.27 878.082 153.27C876.682 153.27 875.402 152.91 874.242 152.19C873.082 151.47 872.162 150.46 871.482 149.16C870.822 147.84 870.492 146.33 870.492 144.63C870.492 142.95 870.822 141.46 871.482 140.16C872.162 138.86 873.072 137.86 874.212 137.16C875.372 136.46 876.662 136.11 878.082 136.11ZM883.572 144.69C883.572 143.67 883.372 142.8 882.972 142.08C882.572 141.34 882.032 140.78 881.352 140.4C880.672 140 879.942 139.8 879.162 139.8C878.382 139.8 877.662 139.99 877.002 140.37C876.342 140.75 875.802 141.31 875.382 142.05C874.982 142.77 874.782 143.63 874.782 144.63C874.782 145.63 874.982 146.51 875.382 147.27C875.802 148.01 876.342 148.58 877.002 148.98C877.682 149.38 878.402 149.58 879.162 149.58C879.942 149.58 880.672 149.39 881.352 149.01C882.032 148.61 882.572 148.05 882.972 147.33C883.372 146.59 883.572 145.71 883.572 144.69ZM898.234 131.7L897.754 146.19H894.214L893.704 131.7H898.234ZM896.074 153.21C895.314 153.21 894.684 152.98 894.184 152.52C893.704 152.04 893.464 151.45 893.464 150.75C893.464 150.05 893.704 149.47 894.184 149.01C894.684 148.53 895.314 148.29 896.074 148.29C896.814 148.29 897.424 148.53 897.904 149.01C898.384 149.47 898.624 150.05 898.624 150.75C898.624 151.45 898.384 152.04 897.904 152.52C897.424 152.98 896.814 153.21 896.074 153.21Z" fill="#8686E4"/>
</svg>
