<svg width="12" height="17" viewBox="0 0 12 17" fill="none" xmlns="http://www.w3.org/2000/svg">
<g clip-path="url(#clip0_267_46)">
<path d="M5.24953 15.75C5.24953 16.1642 5.58532 16.5 5.99953 16.5C6.41374 16.5 6.74953 16.1642 6.74953 15.75H5.24953ZM6.52987 0.21967C6.23697 -0.0732233 5.7621 -0.0732233 5.4692 0.21967L0.696233 4.99264C0.40334 5.28554 0.403339 5.7604 0.696233 6.0533C0.989128 6.34619 1.464 6.34619 1.7569 6.0533L5.99953 1.81066L10.2422 6.0533C10.5351 6.34619 11.0099 6.34619 11.3029 6.0533C11.5957 5.7604 11.5957 5.28554 11.3029 4.99264L6.52987 0.21967ZM6.74953 15.75V0.75H5.24953V15.75H6.74953Z" fill="#404040"/>
</g>
<defs>
<clipPath id="clip0_267_46">
<rect width="12" height="16.5" fill="white"/>
</clipPath>
</defs>
</svg>
